<svg width="400" height="400" viewBox="0 0 400 400" fill="none" xmlns="http://www.w3.org/2000/svg">
<path d="M182.546 31.2001C190.18 17.5528 209.82 17.5528 217.454 31.2001L226.202 46.8368C231.698 56.6617 244.218 60.0162 253.89 54.2557L269.284 45.0878C282.72 37.0863 299.728 46.9059 299.516 62.5422L299.273 80.4578C299.121 91.7146 308.285 100.879 319.542 100.727L337.458 100.484C353.094 100.272 362.914 117.28 354.912 130.716L345.744 146.11C339.984 155.782 343.338 168.302 353.163 173.798L368.8 182.546C382.447 190.18 382.447 209.82 368.8 217.454L353.163 226.202C343.338 231.698 339.984 244.218 345.744 253.89L354.912 269.284C362.914 282.72 353.094 299.728 337.458 299.516L319.542 299.273C308.285 299.121 299.121 308.285 299.273 319.542L299.516 337.458C299.728 353.094 282.72 362.914 269.284 354.912L253.89 345.744C244.218 339.984 231.698 343.338 226.202 353.163L217.454 368.8C209.82 382.447 190.18 382.447 182.546 368.8L173.798 353.163C168.302 343.338 155.782 339.984 146.11 345.744L130.716 354.912C117.28 362.914 100.272 353.094 100.484 337.458L100.727 319.542C100.879 308.285 91.7146 299.121 80.4578 299.273L62.5421 299.516C46.9059 299.728 37.0863 282.72 45.0878 269.284L54.2558 253.89C60.0162 244.218 56.6617 231.698 46.8368 226.202L31.2001 217.454C17.5528 209.82 17.5528 190.18 31.2001 182.546L46.8368 173.798C56.6617 168.302 60.0162 155.782 54.2557 146.11L45.0878 130.716C37.0863 117.28 46.9059 100.272 62.5422 100.484L80.4578 100.727C91.7146 100.879 100.879 91.7146 100.727 80.4578L100.484 62.5421C100.272 46.9059 117.28 37.0863 130.716 45.0878L146.11 54.2558C155.782 60.0162 168.302 56.6617 173.798 46.8368L182.546 31.2001Z" fill="white"/>
<path d="M108.06 200.884C109.001 200.884 109.806 201.06 110.476 201.412C111.144 201.762 111.655 202.239 112.01 202.844C112.366 203.446 112.543 204.13 112.543 204.894C112.543 205.658 112.366 206.343 112.01 206.948C111.653 207.55 111.14 208.027 110.472 208.38C109.802 208.729 108.998 208.904 108.06 208.904C107.12 208.904 106.316 208.729 105.648 208.38C104.978 208.027 104.465 207.55 104.11 206.948C103.755 206.343 103.577 205.658 103.577 204.894C103.577 204.13 103.755 203.446 104.11 202.844C104.465 202.239 104.978 201.762 105.648 201.412C106.316 201.06 107.12 200.884 108.06 200.884ZM108.06 202.473C107.398 202.473 106.84 202.577 106.385 202.784C105.928 202.989 105.583 203.273 105.35 203.637C105.114 204 104.996 204.419 104.996 204.894C104.996 205.368 105.114 205.787 105.35 206.151C105.583 206.515 105.928 206.8 106.385 207.007C106.84 207.212 107.398 207.314 108.06 207.314C108.722 207.314 109.282 207.212 109.739 207.007C110.194 206.8 110.539 206.515 110.775 206.151C111.008 205.787 111.124 205.368 111.124 204.894C111.124 204.419 111.008 204 110.775 203.637C110.539 203.273 110.194 202.989 109.739 202.784C109.282 202.577 108.722 202.473 108.06 202.473Z" fill="black"/>
<path d="M104.016 191.553L104.206 189.984L109.866 190.671C110.487 190.746 111.015 190.959 111.45 191.31C111.886 191.657 112.204 192.111 112.405 192.671C112.604 193.23 112.66 193.862 112.574 194.567C112.488 195.275 112.282 195.877 111.956 196.372C111.627 196.867 111.209 197.232 110.703 197.465C110.197 197.698 109.633 197.777 109.013 197.702L103.353 197.015L103.543 195.445L109.072 196.116C109.433 196.16 109.764 196.12 110.065 195.997C110.367 195.87 110.616 195.671 110.812 195.4C111.005 195.129 111.126 194.795 111.174 194.397C111.222 193.999 111.185 193.646 111.062 193.336C110.937 193.023 110.743 192.771 110.48 192.579C110.218 192.386 109.906 192.268 109.545 192.225L104.016 191.553Z" fill="black"/>
<path d="M112.891 187.479L104.417 185.391L105.2 182.213C105.36 181.562 105.608 181.044 105.943 180.658C106.279 180.27 106.679 180.013 107.143 179.887C107.605 179.758 108.106 179.761 108.646 179.894C109.19 180.028 109.633 180.26 109.976 180.59C110.317 180.917 110.541 181.331 110.649 181.831C110.754 182.331 110.726 182.907 110.565 183.558L110.008 185.821L108.733 185.507L109.24 183.45C109.334 183.07 109.358 182.745 109.313 182.477C109.266 182.207 109.154 181.99 108.978 181.823C108.801 181.654 108.562 181.532 108.261 181.458C107.96 181.384 107.689 181.38 107.448 181.446C107.203 181.512 106.996 181.652 106.826 181.868C106.653 182.083 106.519 182.382 106.425 182.765L106.078 184.172L113.269 185.944L112.891 187.479ZM110.13 182.155L114.487 181.004L114.064 182.717L109.717 183.831L110.13 182.155Z" fill="black"/>
<path d="M118.416 167.004L110.689 162.948L112.241 159.99C112.534 159.431 112.866 159.014 113.236 158.736C113.605 158.455 113.989 158.302 114.387 158.277C114.786 158.249 115.177 158.335 115.56 158.536C115.874 158.701 116.112 158.903 116.272 159.141C116.43 159.378 116.525 159.635 116.556 159.911C116.588 160.187 116.567 160.467 116.496 160.75L116.571 160.79C116.73 160.524 116.953 160.305 117.238 160.134C117.522 159.959 117.845 159.864 118.206 159.848C118.567 159.832 118.944 159.927 119.337 160.133C119.737 160.343 120.045 160.629 120.263 160.99C120.479 161.35 120.576 161.773 120.555 162.26C120.534 162.746 120.368 163.285 120.058 163.876L118.416 167.004ZM117.981 164.99L118.771 163.485C119.038 162.976 119.133 162.56 119.057 162.234C118.98 161.905 118.788 161.66 118.481 161.498C118.252 161.378 118.016 161.327 117.773 161.343C117.527 161.359 117.297 161.443 117.082 161.597C116.864 161.749 116.679 161.969 116.527 162.259L115.717 163.802L117.981 164.99ZM114.71 163.273L115.437 161.888C115.563 161.647 115.633 161.406 115.647 161.166C115.658 160.925 115.611 160.706 115.506 160.51C115.399 160.309 115.232 160.15 115.006 160.031C114.707 159.874 114.405 159.85 114.1 159.96C113.797 160.067 113.537 160.327 113.32 160.739L112.578 162.154L114.71 163.273Z" fill="black"/>
<path d="M122.988 157.415L115.805 152.457L119.03 147.786L120.121 148.539L117.794 151.909L119.744 153.255L121.903 150.127L122.994 150.88L120.835 154.008L122.795 155.361L125.141 151.963L126.232 152.716L122.988 157.415Z" fill="black"/>
<path d="M127.09 140.7C126.785 140.483 126.457 140.416 126.106 140.499C125.757 140.581 125.427 140.797 125.116 141.148C124.897 141.395 124.747 141.639 124.665 141.882C124.583 142.124 124.565 142.349 124.609 142.555C124.654 142.762 124.757 142.939 124.919 143.086C125.055 143.206 125.201 143.28 125.355 143.307C125.512 143.332 125.673 143.321 125.839 143.275C126.003 143.227 126.167 143.157 126.331 143.067C126.494 142.976 126.652 142.878 126.802 142.773L127.498 142.296C127.774 142.1 128.061 141.932 128.361 141.791C128.662 141.648 128.967 141.552 129.276 141.503C129.587 141.452 129.895 141.467 130.2 141.547C130.504 141.627 130.798 141.792 131.081 142.043C131.464 142.382 131.714 142.779 131.832 143.232C131.948 143.684 131.924 144.168 131.76 144.683C131.595 145.194 131.282 145.711 130.818 146.234C130.368 146.742 129.898 147.114 129.409 147.348C128.922 147.581 128.435 147.669 127.946 147.612C127.46 147.553 126.992 147.34 126.543 146.972L127.574 145.808C127.817 145.993 128.068 146.09 128.329 146.101C128.589 146.111 128.844 146.05 129.093 145.919C129.345 145.785 129.58 145.594 129.799 145.348C130.026 145.09 130.188 144.831 130.283 144.57C130.377 144.304 130.405 144.055 130.364 143.822C130.322 143.587 130.208 143.386 130.023 143.218C129.851 143.069 129.666 142.995 129.469 142.995C129.27 142.993 129.055 143.047 128.824 143.158C128.593 143.264 128.344 143.408 128.077 143.589L127.227 144.163C126.613 144.578 126.026 144.818 125.469 144.882C124.911 144.942 124.398 144.765 123.93 144.35C123.545 144.009 123.301 143.606 123.196 143.142C123.093 142.675 123.122 142.19 123.283 141.688C123.442 141.183 123.724 140.702 124.129 140.245C124.539 139.781 124.98 139.447 125.45 139.241C125.921 139.031 126.387 138.953 126.849 139.006C127.309 139.056 127.726 139.241 128.099 139.561L127.09 140.7Z" fill="black"/>
<path d="M130.221 134.944L129.342 133.952L134.554 129.334L135.433 130.326L133.414 132.115L138.322 137.655L137.148 138.695L132.24 133.155L130.221 134.944Z" fill="black"/>
<path d="M152.855 118.711C152.647 118.4 152.364 118.221 152.006 118.175C151.651 118.127 151.266 118.212 150.85 118.43C150.559 118.583 150.331 118.759 150.169 118.956C150.006 119.154 149.909 119.357 149.878 119.566C149.846 119.775 149.88 119.977 149.979 120.172C150.064 120.333 150.174 120.454 150.309 120.534C150.446 120.612 150.601 120.66 150.773 120.675C150.943 120.688 151.121 120.682 151.306 120.655C151.491 120.629 151.673 120.593 151.851 120.547L152.67 120.348C152.998 120.263 153.327 120.208 153.656 120.182C153.989 120.155 154.308 120.174 154.614 120.237C154.923 120.3 155.206 120.423 155.462 120.606C155.719 120.789 155.935 121.048 156.11 121.382C156.348 121.835 156.441 122.294 156.391 122.761C156.339 123.224 156.145 123.668 155.809 124.091C155.474 124.511 154.997 124.883 154.379 125.208C153.777 125.523 153.207 125.704 152.666 125.75C152.128 125.795 151.641 125.704 151.205 125.478C150.771 125.25 150.409 124.885 150.119 124.382L151.497 123.659C151.658 123.918 151.858 124.098 152.098 124.2C152.338 124.302 152.598 124.336 152.878 124.301C153.16 124.265 153.448 124.171 153.739 124.017C154.044 123.858 154.287 123.672 154.468 123.462C154.651 123.247 154.764 123.024 154.809 122.792C154.853 122.557 154.818 122.328 154.704 122.106C154.596 121.906 154.45 121.771 154.266 121.701C154.08 121.628 153.86 121.603 153.605 121.624C153.351 121.642 153.067 121.688 152.754 121.763L151.756 121.998C151.033 122.168 150.4 122.185 149.856 122.047C149.313 121.905 148.897 121.557 148.606 121.004C148.367 120.548 148.281 120.085 148.348 119.614C148.418 119.141 148.617 118.698 148.945 118.285C149.273 117.869 149.707 117.519 150.247 117.236C150.796 116.948 151.326 116.791 151.839 116.766C152.353 116.737 152.817 116.829 153.231 117.041C153.643 117.252 153.967 117.573 154.203 118.004L152.855 118.711Z" fill="black"/>
<path d="M160.806 121.224L157.711 113.063L163.019 111.051L163.489 112.29L159.66 113.742L160.5 115.957L164.054 114.609L164.524 115.849L160.97 117.196L161.814 119.424L165.675 117.96L166.145 119.199L160.806 121.224Z" fill="black"/>
<path d="M170.586 117.078L168.498 108.604L170.033 108.226L171.804 115.413L175.536 114.493L175.854 115.78L170.586 117.078Z" fill="black"/>
<path d="M180.797 114.141L179.745 105.477L181.315 105.287L182.207 112.635L186.022 112.171L186.182 113.487L180.797 114.141Z" fill="black"/>
<path d="M192.866 103.73V112.457H191.285V103.73H192.866Z" fill="black"/>
<path d="M210.072 104.248L209.02 112.912L207.624 112.742L204.258 106.346L204.186 106.337L203.47 112.238L201.9 112.048L202.952 103.384L204.357 103.554L207.718 109.955L207.794 109.964L208.511 104.059L210.072 104.248Z" fill="black"/>
<path d="M219.586 108.553C219.572 108.313 219.526 108.089 219.448 107.883C219.374 107.674 219.268 107.486 219.131 107.318C218.997 107.15 218.83 107.008 218.63 106.891C218.432 106.772 218.205 106.681 217.952 106.619C217.496 106.507 217.063 106.521 216.65 106.662C216.238 106.804 215.875 107.071 215.562 107.465C215.252 107.857 215.018 108.37 214.862 109.004C214.704 109.644 214.671 110.211 214.763 110.705C214.855 111.198 215.052 111.605 215.353 111.925C215.655 112.243 216.044 112.46 216.518 112.577C216.948 112.683 217.341 112.692 217.696 112.604C218.054 112.516 218.356 112.342 218.602 112.081C218.849 111.817 219.023 111.479 219.124 111.068L219.458 111.208L217.158 110.641L217.453 109.441L220.892 110.288L220.641 111.306C220.462 112.032 220.153 112.621 219.713 113.075C219.274 113.528 218.749 113.832 218.137 113.985C217.527 114.136 216.871 114.125 216.17 113.952C215.39 113.76 214.747 113.416 214.243 112.92C213.743 112.422 213.407 111.808 213.236 111.079C213.068 110.347 213.094 109.534 213.315 108.64C213.483 107.956 213.73 107.369 214.056 106.879C214.384 106.389 214.77 106 215.213 105.711C215.656 105.419 216.138 105.234 216.658 105.154C217.178 105.072 217.716 105.099 218.27 105.236C218.739 105.351 219.16 105.528 219.531 105.766C219.903 106.001 220.216 106.283 220.468 106.611C220.723 106.941 220.911 107.303 221.03 107.698C221.149 108.093 221.189 108.507 221.15 108.939L219.586 108.553Z" fill="black"/>
<path d="M232.963 118.449L237.019 110.722L239.916 112.243C240.51 112.554 240.95 112.926 241.236 113.359C241.525 113.793 241.671 114.258 241.674 114.753C241.681 115.248 241.556 115.74 241.298 116.231C241.038 116.726 240.703 117.112 240.292 117.387C239.881 117.662 239.414 117.804 238.89 117.811C238.368 117.816 237.808 117.662 237.212 117.349L235.292 116.341L235.896 115.19L237.628 116.099C237.975 116.282 238.291 116.37 238.575 116.366C238.86 116.361 239.111 116.281 239.327 116.125C239.546 115.971 239.728 115.756 239.872 115.482C240.016 115.208 240.088 114.938 240.09 114.673C240.094 114.408 240.014 114.16 239.851 113.926C239.692 113.692 239.437 113.483 239.087 113.299L237.805 112.626L234.363 119.184L232.963 118.449Z" fill="black"/>
<path d="M242.552 123.021L247.509 115.839L250.203 117.698C250.755 118.079 251.151 118.494 251.393 118.944C251.637 119.395 251.736 119.86 251.689 120.339C251.645 120.816 251.466 121.284 251.149 121.743C250.831 122.203 250.457 122.535 250.027 122.739C249.6 122.941 249.134 123.004 248.628 122.928C248.123 122.849 247.595 122.619 247.043 122.238L245.125 120.914L245.87 119.833L247.613 121.037C247.936 121.259 248.231 121.397 248.498 121.45C248.767 121.501 249.01 121.474 249.227 121.369C249.449 121.263 249.648 121.082 249.824 120.828C250 120.573 250.099 120.321 250.123 120.071C250.148 119.819 250.091 119.576 249.949 119.34C249.81 119.102 249.578 118.871 249.253 118.647L248.06 117.824L243.853 123.919L242.552 123.021ZM248.509 122.328L248.04 126.809L246.588 125.807L247.088 121.347L248.509 122.328Z" fill="black"/>
<path d="M260.252 130.62C259.628 131.324 258.962 131.81 258.254 132.078C257.55 132.346 256.853 132.412 256.165 132.277C255.478 132.143 254.849 131.823 254.277 131.317C253.705 130.81 253.311 130.223 253.093 129.556C252.88 128.888 252.862 128.188 253.042 127.455C253.225 126.721 253.627 126.004 254.249 125.302C254.872 124.598 255.536 124.112 256.24 123.844C256.949 123.576 257.646 123.509 258.332 123.642C259.021 123.778 259.651 124.099 260.223 124.605C260.795 125.112 261.189 125.698 261.404 126.363C261.621 127.03 261.638 127.731 261.455 128.464C261.276 129.198 260.875 129.916 260.252 130.62ZM259.062 129.566C259.501 129.071 259.793 128.584 259.94 128.106C260.09 127.628 260.106 127.181 259.988 126.766C259.872 126.348 259.637 125.982 259.282 125.668C258.927 125.353 258.535 125.163 258.106 125.099C257.68 125.032 257.237 125.101 256.779 125.306C256.324 125.51 255.877 125.86 255.438 126.356C254.999 126.851 254.705 127.338 254.555 127.816C254.408 128.294 254.393 128.742 254.509 129.159C254.627 129.575 254.863 129.94 255.218 130.254C255.573 130.569 255.964 130.76 256.391 130.826C256.82 130.891 257.261 130.821 257.716 130.616C258.174 130.412 258.623 130.061 259.062 129.566Z" fill="black"/>
<path d="M261.698 137.663L259.737 135.449L266.27 129.662L268.27 131.92C268.845 132.569 269.208 133.242 269.359 133.939C269.514 134.637 269.459 135.327 269.194 136.009C268.93 136.692 268.458 137.333 267.78 137.934C267.099 138.537 266.402 138.929 265.689 139.109C264.978 139.291 264.281 139.261 263.6 139.019C262.92 138.778 262.286 138.327 261.698 137.663ZM261.809 135.726L262.671 136.699C263.074 137.154 263.494 137.46 263.929 137.617C264.366 137.772 264.819 137.779 265.286 137.639C265.755 137.496 266.24 137.203 266.74 136.761C267.24 136.318 267.586 135.874 267.78 135.429C267.976 134.982 268.023 134.536 267.922 134.091C267.824 133.646 267.579 133.203 267.187 132.761L266.294 131.753L261.809 135.726Z" fill="black"/>
<path d="M277.389 142.695L278.288 143.996L273.595 147.235C273.081 147.59 272.544 147.781 271.986 147.807C271.43 147.836 270.89 147.707 270.369 147.422C269.85 147.135 269.388 146.699 268.985 146.114C268.58 145.527 268.335 144.94 268.251 144.353C268.169 143.764 268.24 143.214 268.464 142.704C268.688 142.194 269.058 141.761 269.572 141.406L274.264 138.167L275.162 139.468L270.579 142.632C270.279 142.839 270.058 143.088 269.915 143.38C269.773 143.675 269.718 143.989 269.751 144.322C269.787 144.653 269.918 144.983 270.146 145.313C270.373 145.643 270.636 145.883 270.933 146.033C271.234 146.184 271.546 146.245 271.871 146.214C272.195 146.184 272.507 146.065 272.806 145.859L277.389 142.695Z" fill="black"/>
<path d="M282.04 155.555L281.3 154.144C281.51 153.982 281.676 153.8 281.798 153.598C281.922 153.395 282.005 153.18 282.046 152.953C282.088 152.726 282.085 152.493 282.04 152.254C281.999 152.016 281.916 151.778 281.792 151.542C281.571 151.122 281.27 150.805 280.889 150.591C280.509 150.376 280.069 150.283 279.568 150.312C279.069 150.34 278.529 150.506 277.948 150.811C277.357 151.122 276.907 151.475 276.598 151.871C276.293 152.268 276.122 152.682 276.085 153.112C276.052 153.544 276.145 153.968 276.364 154.386C276.485 154.617 276.629 154.818 276.795 154.987C276.965 155.158 277.152 155.292 277.358 155.39C277.564 155.49 277.784 155.549 278.019 155.568C278.254 155.588 278.496 155.561 278.745 155.485L279.478 156.9C279.083 157.04 278.679 157.106 278.264 157.099C277.851 157.094 277.447 157.016 277.053 156.864C276.661 156.71 276.297 156.481 275.961 156.176C275.627 155.87 275.339 155.487 275.097 155.026C274.741 154.347 274.58 153.659 274.614 152.96C274.649 152.262 274.883 151.604 275.315 150.985C275.748 150.367 276.379 149.84 277.209 149.404C278.042 148.967 278.835 148.748 279.588 148.747C280.345 148.745 281.02 148.928 281.614 149.296C282.208 149.664 282.682 150.186 283.036 150.86C283.262 151.29 283.412 151.722 283.485 152.155C283.558 152.588 283.554 153.011 283.472 153.423C283.392 153.833 283.233 154.22 282.993 154.583C282.758 154.948 282.44 155.271 282.04 155.555Z" fill="black"/>
<path d="M285.528 157.856L286.767 157.386L289.237 163.897L287.997 164.367L287.041 161.844L280.12 164.469L279.564 163.003L286.485 160.378L285.528 157.856Z" fill="black"/>
<path d="M290.168 173.71C290.52 173.583 290.761 173.351 290.892 173.014C291.023 172.68 291.033 172.286 290.92 171.831C290.842 171.511 290.726 171.248 290.573 171.043C290.42 170.838 290.246 170.695 290.05 170.614C289.855 170.534 289.65 170.518 289.437 170.568C289.261 170.612 289.118 170.689 289.008 170.801C288.898 170.916 288.816 171.055 288.759 171.218C288.706 171.38 288.67 171.555 288.651 171.741C288.633 171.927 288.624 172.111 288.625 172.295L288.623 173.139C288.627 173.477 288.602 173.81 288.548 174.136C288.495 174.465 288.4 174.771 288.265 175.053C288.13 175.338 287.943 175.583 287.704 175.788C287.465 175.993 287.162 176.141 286.795 176.231C286.299 176.354 285.83 176.335 285.39 176.174C284.952 176.013 284.568 175.718 284.237 175.291C283.91 174.865 283.663 174.313 283.496 173.634C283.333 172.975 283.294 172.378 283.379 171.842C283.464 171.309 283.669 170.858 283.993 170.488C284.318 170.121 284.759 169.857 285.316 169.697L285.689 171.207C285.399 171.302 285.176 171.453 285.019 171.661C284.863 171.87 284.768 172.114 284.735 172.394C284.702 172.677 284.725 172.979 284.804 173.299C284.887 173.633 285.008 173.913 285.169 174.139C285.334 174.368 285.524 174.532 285.738 174.631C285.956 174.73 286.186 174.75 286.43 174.693C286.649 174.636 286.816 174.526 286.928 174.364C287.043 174.201 287.12 173.993 287.16 173.741C287.204 173.49 287.227 173.203 287.229 172.881L287.24 171.856C287.247 171.114 287.383 170.495 287.647 170C287.915 169.507 288.352 169.185 288.959 169.036C289.458 168.913 289.929 168.94 290.37 169.118C290.813 169.299 291.195 169.598 291.518 170.016C291.843 170.433 292.079 170.938 292.225 171.531C292.373 172.133 292.398 172.685 292.3 173.189C292.205 173.695 292.005 174.124 291.699 174.474C291.396 174.824 291.007 175.062 290.532 175.187L290.168 173.71Z" fill="black"/>
<path d="M291.875 199.116C290.935 199.116 290.13 198.94 289.459 198.588C288.792 198.238 288.28 197.761 287.925 197.156C287.57 196.554 287.392 195.87 287.392 195.106C287.392 194.342 287.57 193.657 287.925 193.052C288.283 192.45 288.796 191.973 289.463 191.62C290.134 191.271 290.938 191.096 291.875 191.096C292.816 191.096 293.62 191.271 294.287 191.62C294.958 191.973 295.471 192.45 295.826 193.052C296.181 193.657 296.358 194.342 296.358 195.106C296.358 195.87 296.181 196.554 295.826 197.156C295.471 197.761 294.958 198.238 294.287 198.588C293.62 198.94 292.816 199.116 291.875 199.116ZM291.875 197.527C292.537 197.527 293.096 197.423 293.55 197.216C294.007 197.011 294.353 196.727 294.586 196.363C294.821 196 294.939 195.581 294.939 195.106C294.939 194.632 294.821 194.213 294.586 193.849C294.353 193.485 294.007 193.2 293.55 192.993C293.096 192.788 292.537 192.686 291.875 192.686C291.213 192.686 290.654 192.788 290.196 192.993C289.742 193.2 289.397 193.485 289.161 193.849C288.928 194.213 288.811 194.632 288.811 195.106C288.811 195.581 288.928 196 289.161 196.363C289.397 196.727 289.742 197.011 290.196 197.216C290.654 197.423 291.213 197.527 291.875 197.527Z" fill="black"/>
<path d="M295.92 208.447L295.729 210.016L290.069 209.329C289.449 209.254 288.921 209.041 288.485 208.69C288.05 208.343 287.731 207.889 287.53 207.329C287.332 206.77 287.276 206.138 287.361 205.433C287.447 204.725 287.653 204.123 287.98 203.628C288.309 203.133 288.727 202.768 289.233 202.535C289.739 202.302 290.302 202.223 290.923 202.298L296.583 202.985L296.392 204.555L290.863 203.884C290.502 203.84 290.171 203.88 289.87 204.003C289.569 204.13 289.32 204.329 289.124 204.6C288.931 204.871 288.81 205.205 288.762 205.603C288.713 206.001 288.75 206.354 288.873 206.664C288.998 206.977 289.192 207.229 289.455 207.421C289.718 207.614 290.03 207.732 290.391 207.775L295.92 208.447Z" fill="black"/>
<path d="M287.045 212.521L295.519 214.609L294.735 217.787C294.575 218.438 294.327 218.956 293.992 219.342C293.657 219.73 293.257 219.987 292.793 220.113C292.331 220.242 291.83 220.239 291.289 220.106C290.746 219.972 290.303 219.74 289.96 219.41C289.619 219.083 289.395 218.669 289.287 218.169C289.182 217.669 289.21 217.093 289.37 216.442L289.928 214.179L291.202 214.493L290.695 216.55C290.602 216.93 290.577 217.255 290.622 217.523C290.67 217.793 290.782 218.01 290.957 218.177C291.135 218.346 291.374 218.468 291.675 218.542C291.975 218.616 292.246 218.62 292.488 218.554C292.732 218.488 292.94 218.348 293.11 218.132C293.283 217.917 293.416 217.618 293.511 217.235L293.858 215.828L286.667 214.056L287.045 212.521ZM289.806 217.845L285.449 218.996L285.871 217.283L290.219 216.169L289.806 217.845Z" fill="black"/>
<path d="M281.517 232.996L289.245 237.052L287.692 240.01C287.399 240.569 287.068 240.986 286.698 241.264C286.329 241.545 285.945 241.698 285.547 241.723C285.147 241.751 284.756 241.665 284.374 241.464C284.059 241.299 283.822 241.097 283.662 240.859C283.504 240.622 283.409 240.365 283.377 240.089C283.346 239.813 283.366 239.533 283.438 239.25L283.362 239.21C283.203 239.476 282.981 239.695 282.696 239.866C282.411 240.041 282.089 240.136 281.727 240.152C281.366 240.168 280.989 240.073 280.597 239.867C280.197 239.657 279.888 239.371 279.67 239.01C279.455 238.65 279.358 238.227 279.379 237.74C279.4 237.254 279.565 236.715 279.876 236.124L281.517 232.996ZM281.952 235.01L281.162 236.515C280.896 237.024 280.8 237.44 280.877 237.766C280.954 238.095 281.146 238.34 281.453 238.502C281.682 238.622 281.918 238.673 282.161 238.657C282.406 238.641 282.637 238.557 282.852 238.403C283.07 238.251 283.255 238.031 283.406 237.741L284.216 236.198L281.952 235.01ZM285.224 236.727L284.497 238.112C284.37 238.353 284.3 238.594 284.287 238.834C284.275 239.075 284.323 239.294 284.428 239.49C284.535 239.691 284.701 239.85 284.928 239.969C285.227 240.126 285.529 240.15 285.833 240.04C286.137 239.933 286.397 239.673 286.613 239.261L287.356 237.846L285.224 236.727Z" fill="black"/>
<path d="M276.946 242.585L284.128 247.543L280.904 252.214L279.813 251.461L282.139 248.091L280.189 246.745L278.03 249.873L276.939 249.12L279.099 245.992L277.138 244.639L274.793 248.037L273.702 247.284L276.946 242.585Z" fill="black"/>
<path d="M272.843 259.3C273.148 259.517 273.476 259.584 273.827 259.501C274.177 259.419 274.507 259.203 274.818 258.852C275.036 258.605 275.186 258.361 275.268 258.118C275.35 257.876 275.369 257.651 275.324 257.445C275.279 257.238 275.176 257.061 275.014 256.914C274.878 256.794 274.733 256.72 274.578 256.693C274.422 256.668 274.261 256.679 274.094 256.725C273.93 256.773 273.766 256.843 273.603 256.933C273.439 257.024 273.282 257.122 273.131 257.227L272.436 257.704C272.16 257.9 271.872 258.068 271.573 258.209C271.272 258.352 270.966 258.448 270.657 258.497C270.347 258.548 270.039 258.533 269.734 258.453C269.429 258.373 269.136 258.208 268.853 257.957C268.47 257.618 268.22 257.221 268.102 256.768C267.986 256.316 268.01 255.832 268.174 255.317C268.338 254.806 268.652 254.289 269.115 253.766C269.566 253.258 270.035 252.886 270.524 252.652C271.011 252.419 271.499 252.331 271.987 252.388C272.474 252.447 272.942 252.66 273.391 253.028L272.359 254.192C272.117 254.007 271.865 253.91 271.605 253.899C271.345 253.889 271.09 253.95 270.84 254.081C270.589 254.215 270.354 254.406 270.135 254.652C269.907 254.91 269.746 255.169 269.651 255.43C269.556 255.696 269.529 255.945 269.569 256.178C269.612 256.413 269.725 256.614 269.911 256.782C270.083 256.931 270.267 257.005 270.465 257.005C270.664 257.007 270.879 256.953 271.11 256.842C271.341 256.736 271.59 256.592 271.856 256.411L272.706 255.837C273.321 255.422 273.907 255.182 274.465 255.118C275.023 255.058 275.536 255.235 276.003 255.65C276.388 255.991 276.633 256.394 276.738 256.858C276.84 257.325 276.811 257.81 276.651 258.312C276.492 258.817 276.21 259.298 275.805 259.755C275.394 260.219 274.954 260.553 274.483 260.759C274.013 260.969 273.547 261.047 273.085 260.994C272.625 260.944 272.208 260.759 271.834 260.439L272.843 259.3Z" fill="black"/>
<path d="M269.713 265.056L270.592 266.048L265.38 270.666L264.501 269.674L266.52 267.885L261.612 262.345L262.785 261.305L267.694 266.845L269.713 265.056Z" fill="black"/>
<path d="M247.08 281.289C247.288 281.6 247.571 281.779 247.929 281.825C248.285 281.873 248.67 281.788 249.085 281.57C249.377 281.417 249.604 281.241 249.767 281.044C249.929 280.846 250.026 280.643 250.058 280.434C250.089 280.225 250.055 280.023 249.956 279.828C249.872 279.667 249.762 279.546 249.627 279.466C249.489 279.388 249.335 279.34 249.163 279.325C248.992 279.312 248.815 279.318 248.63 279.345C248.445 279.371 248.263 279.407 248.085 279.453L247.265 279.652C246.938 279.737 246.609 279.792 246.279 279.818C245.947 279.845 245.627 279.826 245.321 279.763C245.012 279.7 244.73 279.577 244.473 279.394C244.217 279.211 244.001 278.952 243.825 278.618C243.588 278.165 243.494 277.706 243.545 277.239C243.596 276.776 243.79 276.332 244.126 275.909C244.461 275.489 244.938 275.117 245.557 274.792C246.158 274.477 246.729 274.296 247.269 274.25C247.807 274.205 248.295 274.296 248.731 274.522C249.165 274.75 249.527 275.115 249.816 275.618L248.439 276.341C248.278 276.082 248.077 275.902 247.837 275.8C247.598 275.698 247.338 275.664 247.058 275.699C246.775 275.735 246.488 275.829 246.196 275.983C245.892 276.142 245.649 276.328 245.467 276.538C245.285 276.753 245.171 276.976 245.126 277.208C245.082 277.443 245.117 277.672 245.231 277.894C245.339 278.094 245.485 278.229 245.67 278.299C245.855 278.372 246.076 278.397 246.331 278.376C246.585 278.358 246.868 278.312 247.182 278.237L248.18 278.002C248.902 277.832 249.535 277.815 250.079 277.953C250.622 278.095 251.039 278.443 251.329 278.996C251.568 279.452 251.654 279.915 251.587 280.386C251.518 280.859 251.319 281.302 250.99 281.715C250.663 282.131 250.229 282.481 249.688 282.764C249.14 283.052 248.609 283.209 248.096 283.234C247.582 283.263 247.118 283.171 246.705 282.959C246.293 282.748 245.969 282.427 245.733 281.996L247.08 281.289Z" fill="black"/>
<path d="M239.129 278.776L242.224 286.937L236.917 288.949L236.447 287.71L240.276 286.258L239.436 284.043L235.882 285.391L235.412 284.151L238.966 282.804L238.121 280.576L234.26 282.04L233.79 280.801L239.129 278.776Z" fill="black"/>
<path d="M229.347 282.922L231.436 291.396L229.901 291.774L228.129 284.587L224.397 285.507L224.08 284.22L229.347 282.922Z" fill="black"/>
<path d="M219.138 285.859L220.19 294.523L218.621 294.713L217.729 287.365L213.913 287.829L213.753 286.513L219.138 285.859Z" fill="black"/>
<path d="M207.068 296.27V287.543H208.649V296.27H207.068Z" fill="black"/>
<path d="M189.862 295.752L190.914 287.088L192.31 287.258L195.675 293.654L195.747 293.663L196.464 287.762L198.033 287.952L196.981 296.616L195.577 296.446L192.216 290.045L192.14 290.036L191.423 295.941L189.862 295.752Z" fill="black"/>
<path d="M180.348 291.447C180.362 291.687 180.408 291.911 180.485 292.117C180.56 292.326 180.666 292.514 180.803 292.682C180.937 292.85 181.104 292.992 181.303 293.109C181.502 293.228 181.728 293.319 181.982 293.381C182.437 293.493 182.871 293.479 183.283 293.338C183.695 293.196 184.058 292.929 184.372 292.535C184.682 292.143 184.915 291.63 185.072 290.996C185.229 290.356 185.262 289.789 185.17 289.295C185.079 288.802 184.882 288.395 184.58 288.075C184.278 287.757 183.89 287.54 183.415 287.423C182.985 287.317 182.592 287.308 182.237 287.396C181.879 287.484 181.577 287.658 181.331 287.919C181.085 288.183 180.911 288.521 180.81 288.932L180.475 288.792L182.776 289.359L182.48 290.559L179.042 289.712L179.293 288.694C179.472 287.968 179.781 287.379 180.22 286.925C180.66 286.472 181.185 286.168 181.796 286.015C182.407 285.864 183.063 285.875 183.763 286.048C184.544 286.24 185.186 286.584 185.69 287.08C186.191 287.578 186.527 288.192 186.698 288.921C186.866 289.653 186.839 290.466 186.619 291.36C186.45 292.044 186.203 292.631 185.878 293.121C185.549 293.611 185.164 294 184.721 294.289C184.277 294.581 183.796 294.766 183.276 294.846C182.755 294.928 182.218 294.901 181.663 294.764C181.194 294.649 180.774 294.472 180.403 294.234C180.03 293.999 179.718 293.717 179.465 293.389C179.21 293.059 179.023 292.697 178.904 292.302C178.785 291.907 178.745 291.493 178.784 291.061L180.348 291.447Z" fill="black"/>
<path d="M166.971 281.551L162.915 289.278L160.017 287.757C159.423 287.446 158.983 287.074 158.697 286.641C158.408 286.207 158.262 285.742 158.26 285.247C158.253 284.752 158.378 284.26 158.636 283.769C158.896 283.274 159.231 282.888 159.642 282.613C160.053 282.338 160.52 282.196 161.044 282.189C161.566 282.184 162.125 282.338 162.721 282.651L164.642 283.659L164.038 284.81L162.306 283.901C161.959 283.718 161.643 283.63 161.358 283.634C161.073 283.639 160.823 283.719 160.606 283.875C160.387 284.029 160.206 284.244 160.062 284.518C159.918 284.792 159.845 285.062 159.844 285.327C159.84 285.592 159.919 285.84 160.083 286.074C160.242 286.308 160.496 286.517 160.846 286.701L162.129 287.374L165.571 280.816L166.971 281.551Z" fill="black"/>
<path d="M157.382 276.979L152.424 284.161L149.731 282.302C149.179 281.921 148.782 281.506 148.54 281.056C148.296 280.605 148.198 280.14 148.245 279.661C148.288 279.184 148.468 278.716 148.784 278.257C149.102 277.797 149.476 277.465 149.907 277.261C150.333 277.059 150.8 276.996 151.306 277.072C151.81 277.151 152.339 277.381 152.89 277.762L154.809 279.086L154.063 280.167L152.32 278.963C151.997 278.741 151.703 278.603 151.436 278.55C151.167 278.499 150.924 278.526 150.706 278.631C150.485 278.737 150.286 278.918 150.11 279.172C149.934 279.427 149.834 279.679 149.81 279.929C149.785 280.181 149.843 280.424 149.984 280.66C150.124 280.898 150.356 281.129 150.681 281.353L151.873 282.176L156.081 276.081L157.382 276.979ZM151.425 277.672L151.893 273.191L153.345 274.193L152.845 278.653L151.425 277.672Z" fill="black"/>
<path d="M139.684 269.38C140.308 268.676 140.973 268.19 141.682 267.922C142.386 267.654 143.082 267.588 143.771 267.723C144.457 267.857 145.086 268.177 145.658 268.683C146.23 269.19 146.625 269.777 146.842 270.444C147.056 271.112 147.073 271.812 146.894 272.545C146.711 273.279 146.309 273.996 145.687 274.698C145.063 275.402 144.399 275.888 143.695 276.156C142.987 276.424 142.29 276.491 141.603 276.358C140.915 276.222 140.285 275.901 139.713 275.395C139.141 274.888 138.747 274.302 138.532 273.637C138.314 272.97 138.297 272.269 138.48 271.536C138.659 270.802 139.06 270.084 139.684 269.38ZM140.874 270.434C140.435 270.929 140.142 271.416 139.996 271.894C139.846 272.372 139.83 272.819 139.947 273.234C140.063 273.652 140.299 274.018 140.654 274.332C141.009 274.647 141.401 274.837 141.829 274.901C142.256 274.968 142.698 274.899 143.157 274.694C143.612 274.49 144.058 274.14 144.497 273.644C144.936 273.149 145.231 272.662 145.381 272.184C145.527 271.706 145.542 271.258 145.426 270.841C145.309 270.425 145.072 270.06 144.717 269.746C144.362 269.431 143.971 269.24 143.545 269.174C143.116 269.109 142.674 269.179 142.22 269.384C141.761 269.588 141.313 269.939 140.874 270.434Z" fill="black"/>
<path d="M138.235 262.337L140.196 264.551L133.664 270.338L131.663 268.08C131.089 267.431 130.726 266.758 130.575 266.061C130.42 265.363 130.475 264.673 130.739 263.991C131.004 263.308 131.476 262.667 132.154 262.066C132.834 261.463 133.531 261.071 134.244 260.891C134.956 260.709 135.652 260.739 136.334 260.981C137.014 261.222 137.648 261.673 138.235 262.337ZM138.124 264.274L137.262 263.301C136.859 262.846 136.44 262.54 136.005 262.383C135.567 262.228 135.115 262.221 134.648 262.361C134.178 262.504 133.694 262.797 133.194 263.239C132.694 263.682 132.347 264.126 132.153 264.571C131.957 265.018 131.91 265.464 132.012 265.909C132.11 266.354 132.355 266.797 132.747 267.239L133.64 268.247L138.124 264.274Z" fill="black"/>
<path d="M122.544 257.305L121.646 256.004L126.338 252.765C126.853 252.41 127.389 252.219 127.947 252.193C128.504 252.164 129.043 252.293 129.565 252.578C130.084 252.865 130.545 253.301 130.949 253.886C131.354 254.473 131.599 255.06 131.683 255.647C131.765 256.236 131.694 256.786 131.47 257.296C131.245 257.806 130.876 258.239 130.362 258.594L125.669 261.833L124.771 260.532L129.355 257.368C129.654 257.161 129.875 256.912 130.019 256.62C130.161 256.325 130.215 256.011 130.182 255.678C130.147 255.347 130.015 255.017 129.788 254.687C129.56 254.357 129.298 254.117 129.001 253.967C128.7 253.816 128.387 253.755 128.063 253.786C127.739 253.816 127.427 253.935 127.128 254.141L122.544 257.305Z" fill="black"/>
<path d="M117.893 244.445L118.634 245.856C118.424 246.018 118.258 246.2 118.136 246.402C118.011 246.605 117.929 246.82 117.887 247.047C117.846 247.274 117.848 247.507 117.893 247.746C117.935 247.984 118.018 248.222 118.142 248.458C118.362 248.878 118.663 249.195 119.045 249.409C119.424 249.624 119.864 249.717 120.366 249.688C120.865 249.66 121.405 249.494 121.986 249.189C122.577 248.878 123.027 248.525 123.335 248.129C123.64 247.732 123.811 247.318 123.848 246.888C123.882 246.456 123.789 246.032 123.57 245.614C123.448 245.383 123.305 245.182 123.139 245.013C122.969 244.842 122.781 244.708 122.576 244.61C122.37 244.51 122.149 244.451 121.915 244.432C121.679 244.412 121.437 244.439 121.188 244.515L120.455 243.1C120.85 242.96 121.255 242.894 121.669 242.901C122.083 242.906 122.486 242.984 122.881 243.136C123.273 243.29 123.637 243.519 123.973 243.824C124.307 244.13 124.595 244.513 124.836 244.974C125.193 245.653 125.354 246.341 125.319 247.04C125.285 247.738 125.051 248.396 124.618 249.015C124.186 249.633 123.554 250.16 122.724 250.596C121.892 251.033 121.099 251.252 120.345 251.253C119.589 251.255 118.914 251.072 118.32 250.704C117.725 250.336 117.251 249.814 116.897 249.14C116.672 248.71 116.522 248.278 116.449 247.845C116.375 247.412 116.38 246.989 116.462 246.577C116.541 246.167 116.701 245.78 116.94 245.417C117.176 245.052 117.494 244.729 117.893 244.445Z" fill="black"/>
<path d="M114.405 242.144L113.166 242.614L110.697 236.103L111.936 235.633L112.893 238.156L119.814 235.531L120.37 236.997L113.449 239.622L114.405 242.144Z" fill="black"/>
<path d="M109.766 226.29C109.414 226.417 109.173 226.649 109.042 226.986C108.911 227.32 108.901 227.714 109.013 228.169C109.092 228.489 109.208 228.752 109.361 228.957C109.514 229.162 109.688 229.305 109.884 229.386C110.079 229.466 110.283 229.482 110.496 229.432C110.673 229.388 110.816 229.311 110.926 229.199C111.035 229.084 111.118 228.945 111.174 228.782C111.228 228.62 111.264 228.445 111.283 228.259C111.301 228.073 111.31 227.889 111.308 227.705L111.311 226.861C111.307 226.523 111.331 226.19 111.386 225.864C111.439 225.535 111.533 225.229 111.669 224.947C111.803 224.662 111.99 224.417 112.229 224.212C112.468 224.007 112.771 223.859 113.138 223.769C113.635 223.646 114.103 223.665 114.544 223.826C114.981 223.987 115.365 224.282 115.696 224.709C116.023 225.135 116.271 225.687 116.438 226.366C116.6 227.025 116.639 227.622 116.555 228.158C116.47 228.691 116.265 229.142 115.941 229.512C115.616 229.879 115.174 230.143 114.617 230.303L114.245 228.793C114.535 228.698 114.758 228.547 114.914 228.339C115.071 228.13 115.165 227.886 115.199 227.606C115.231 227.323 115.208 227.021 115.129 226.701C115.047 226.367 114.925 226.087 114.764 225.861C114.6 225.632 114.41 225.468 114.195 225.369C113.978 225.27 113.748 225.25 113.504 225.307C113.284 225.364 113.118 225.474 113.006 225.636C112.891 225.799 112.813 226.007 112.773 226.259C112.73 226.51 112.707 226.797 112.704 227.119L112.694 228.144C112.686 228.886 112.551 229.505 112.287 230C112.019 230.493 111.582 230.815 110.975 230.964C110.476 231.087 110.005 231.06 109.563 230.882C109.121 230.701 108.738 230.402 108.416 229.984C108.091 229.567 107.855 229.062 107.709 228.469C107.561 227.867 107.536 227.315 107.634 226.811C107.728 226.305 107.929 225.876 108.234 225.526C108.537 225.176 108.926 224.938 109.402 224.813L109.766 226.29Z" fill="black"/>
</svg>
