<svg width="130" height="130" viewBox="0 0 130 130" fill="none" xmlns="http://www.w3.org/2000/svg">
<path d="M3.40009 65.5918C4.03056 65.5918 4.56991 65.7097 5.01881 65.9456C5.46637 66.1801 5.80874 66.4996 6.04659 66.905C6.28511 67.3083 6.4037 67.7666 6.4037 68.2785C6.4037 68.7904 6.28511 69.2493 6.04659 69.6547C5.8074 70.058 5.46369 70.3776 5.01613 70.6141C4.56723 70.8479 4.02855 70.9652 3.40009 70.9652C2.77029 70.9652 2.23161 70.8479 1.78405 70.6141C1.33515 70.3776 0.991442 70.058 0.753592 69.6547C0.515742 69.2493 0.396484 68.7904 0.396484 68.2785C0.396484 67.7666 0.515742 67.3083 0.753592 66.905C0.991442 66.4996 1.33515 66.1801 1.78405 65.9456C2.23161 65.7097 2.77029 65.5918 3.40009 65.5918ZM3.40009 66.6564C2.95655 66.6564 2.58269 66.7261 2.27784 66.8648C1.97165 67.0021 1.7405 67.1924 1.58439 67.4363C1.42627 67.6795 1.34721 67.9602 1.34721 68.2785C1.34721 68.5961 1.42627 68.8768 1.58439 69.1207C1.7405 69.3646 1.97165 69.5555 2.27784 69.6942C2.58269 69.8316 2.95655 69.8999 3.40009 69.8999C3.84363 69.8999 4.21883 69.8316 4.52502 69.6942C4.82987 69.5555 5.06102 69.3646 5.21914 69.1207C5.37525 68.8768 5.45297 68.5961 5.45297 68.2785C5.45297 67.9602 5.37525 67.6795 5.21914 67.4363C5.06102 67.1924 4.82987 67.0021 4.52502 66.8648C4.21883 66.7261 3.84363 66.6564 3.40009 66.6564Z" fill="black"/>
<path d="M0.690305 59.3403L0.817607 58.2891L4.6098 58.7494C5.02587 58.7996 5.37963 58.9423 5.67108 59.1775C5.9632 59.41 6.17627 59.7142 6.31094 60.0894C6.44427 60.4639 6.48178 60.8873 6.42416 61.3597C6.36654 61.834 6.22853 62.2374 6.01011 62.569C5.78968 62.9007 5.50962 63.1452 5.1706 63.3013C4.83158 63.4574 4.4537 63.5104 4.0383 63.4601L0.246094 62.9998L0.373395 61.9479L4.07783 62.3975C4.31969 62.427 4.54147 62.4002 4.74314 62.3178C4.94548 62.2327 5.1123 62.0994 5.24362 61.9178C5.37293 61.7362 5.45401 61.5124 5.48617 61.2458C5.51833 60.9791 5.49353 60.7426 5.41112 60.5349C5.32737 60.3252 5.1974 60.1564 5.02119 60.0277C4.84565 59.8984 4.6366 59.8194 4.39473 59.7905L0.690305 59.3403Z" fill="black"/>
<path d="M6.63656 56.6111L0.958984 55.2121L1.48359 53.0829C1.59079 52.6467 1.75695 52.2996 1.98141 52.041C2.20652 51.7811 2.47452 51.6089 2.7854 51.5244C3.09494 51.438 3.43062 51.44 3.79242 51.5291C4.1569 51.6189 4.4537 51.7744 4.68351 51.9955C4.91198 52.2145 5.06207 52.4919 5.13443 52.8269C5.20478 53.1619 5.18602 53.5478 5.07815 53.984L4.70496 55.5002L3.85071 55.2898L4.19039 53.9117C4.25337 53.6571 4.26946 53.4393 4.23931 53.2598C4.20782 53.0789 4.13277 52.9335 4.01485 52.8216C3.89626 52.7083 3.73614 52.6266 3.53447 52.577C3.3328 52.5274 3.15122 52.5248 2.98975 52.569C2.8256 52.6132 2.68691 52.707 2.57301 52.8517C2.4571 52.9958 2.36733 53.1961 2.30435 53.4527L2.07186 54.3954L6.88982 55.5826L6.63656 56.6111ZM4.78669 53.044L7.70588 52.2728L7.42248 53.4205L4.50999 54.1669L4.78669 53.044Z" fill="black"/>
<path d="M10.3392 42.8925L5.16211 40.175L6.20195 38.1932C6.39826 37.8186 6.6207 37.5392 6.8686 37.353C7.11583 37.1647 7.37311 37.0622 7.63977 37.0454C7.9071 37.0267 8.16907 37.0843 8.42568 37.219C8.63606 37.3295 8.79552 37.4649 8.90272 37.6243C9.00858 37.7831 9.07223 37.9553 9.093 38.1402C9.11444 38.3251 9.10037 38.5128 9.0528 38.7024L9.10305 38.7292C9.20958 38.5509 9.35899 38.4042 9.54994 38.2896C9.74022 38.1724 9.95663 38.1087 10.1985 38.098C10.4404 38.0873 10.693 38.1509 10.9563 38.289C11.2243 38.4297 11.4306 38.6213 11.5767 38.8632C11.7214 39.1044 11.7864 39.3878 11.7723 39.7141C11.7583 40.0397 11.647 40.4008 11.4393 40.7968L10.3392 42.8925ZM10.0477 41.5432L10.5771 40.5348C10.7559 40.1938 10.8196 39.9151 10.7687 39.6966C10.7171 39.4762 10.5884 39.3121 10.3827 39.2035C10.2293 39.1231 10.0712 39.089 9.90839 39.0997C9.74357 39.1104 9.58947 39.1667 9.44542 39.2699C9.29936 39.3717 9.17541 39.5191 9.07357 39.7134L8.53087 40.7472L10.0477 41.5432ZM7.85618 40.3928L8.34327 39.4648C8.42769 39.3034 8.47459 39.1419 8.48397 38.9811C8.49134 38.8196 8.45985 38.6729 8.3895 38.5416C8.31781 38.4069 8.20592 38.3004 8.0545 38.2206C7.85417 38.1154 7.65183 38.0994 7.44748 38.1731C7.24447 38.2448 7.07027 38.419 6.92488 38.695L6.42774 39.643L7.85618 40.3928Z" fill="black"/>
<path d="M13.4015 36.468L8.58887 33.1462L10.7496 30.0166L11.4806 30.5211L9.9215 32.779L11.228 33.6808L12.6745 31.5851L13.4055 32.0896L11.959 34.1853L13.2722 35.0918L14.844 32.8152L15.575 33.3197L13.4015 36.468Z" fill="black"/>
<path d="M16.1503 25.2688C15.946 25.1234 15.7262 25.0785 15.4911 25.1341C15.2572 25.1891 15.0361 25.3338 14.8278 25.569C14.681 25.7344 14.5805 25.8979 14.5256 26.0607C14.4707 26.2229 14.4586 26.3736 14.4881 26.5116C14.5182 26.6503 14.5872 26.7689 14.6958 26.8674C14.7869 26.9478 14.8847 26.9974 14.9879 27.0155C15.0931 27.0322 15.201 27.0249 15.3122 26.994C15.4221 26.9619 15.5319 26.915 15.6418 26.8547C15.751 26.7937 15.8569 26.7281 15.9574 26.6577L16.4237 26.3381C16.6086 26.2068 16.8009 26.0942 17.0019 25.9998C17.2036 25.904 17.4079 25.8396 17.615 25.8068C17.8233 25.7726 18.0297 25.7827 18.234 25.8363C18.4377 25.8899 18.6347 26.0004 18.8243 26.1686C19.0809 26.3957 19.2484 26.6617 19.3275 26.9652C19.4052 27.2681 19.3891 27.5924 19.2792 27.9374C19.1687 28.2798 18.959 28.6262 18.6481 28.9766C18.3466 29.3169 18.0317 29.5662 17.7041 29.723C17.3778 29.8791 17.0515 29.938 16.7239 29.8998C16.3982 29.8603 16.0847 29.7176 15.7839 29.471L16.4746 28.6912C16.6374 28.8151 16.8056 28.8801 16.9805 28.8875C17.1547 28.8942 17.3255 28.8533 17.4924 28.7655C17.6612 28.6758 17.8186 28.5478 17.9654 28.383C18.1175 28.2101 18.226 28.0366 18.2897 27.8617C18.3526 27.6835 18.3714 27.5167 18.3439 27.3605C18.3158 27.2031 18.2394 27.0684 18.1155 26.9559C18.0002 26.856 17.8763 26.8064 17.7443 26.8064C17.6109 26.8051 17.4669 26.8413 17.3121 26.9157C17.1574 26.9867 16.9905 27.0832 16.8116 27.2044L16.2421 27.589C15.8308 27.8671 15.4375 28.0279 15.0643 28.0707C14.6904 28.1109 14.3467 27.9924 14.0331 27.7143C13.7752 27.4858 13.6117 27.2158 13.5414 26.9049C13.4724 26.592 13.4918 26.2671 13.5997 25.9308C13.7062 25.5924 13.8951 25.2701 14.1665 24.9639C14.4412 24.6531 14.7366 24.4293 15.0515 24.2913C15.3671 24.1506 15.6793 24.0983 15.9889 24.1338C16.2971 24.1673 16.5765 24.2913 16.8264 24.5057L16.1503 25.2688Z" fill="black"/>
<path d="M18.2481 21.412L17.6592 20.7474L21.1512 17.6533L21.7402 18.318L20.3874 19.5166L23.6758 23.2284L22.8892 23.9252L19.6008 20.2134L18.2481 21.412Z" fill="black"/>
<path d="M33.4133 10.5361C33.274 10.3278 33.0844 10.2078 32.8445 10.177C32.6067 10.1449 32.3487 10.2018 32.07 10.3479C31.875 10.4504 31.7223 10.5683 31.6137 10.7003C31.5045 10.8329 31.4395 10.969 31.4187 11.109C31.3973 11.249 31.4201 11.3844 31.4864 11.515C31.5434 11.6229 31.6171 11.7039 31.7075 11.7575C31.7993 11.8098 31.9032 11.842 32.0184 11.852C32.1323 11.8607 32.2516 11.8567 32.3755 11.8386C32.4995 11.8212 32.6214 11.7971 32.7407 11.7663L33.2894 11.6329C33.5091 11.576 33.7296 11.5391 33.95 11.5217C34.1731 11.5036 34.3868 11.5163 34.5919 11.5586C34.7989 11.6008 34.9885 11.6832 35.16 11.8058C35.3322 11.9284 35.4769 12.1019 35.5942 12.3257C35.7536 12.6292 35.816 12.9367 35.7825 13.2496C35.7476 13.5598 35.6176 13.8573 35.3925 14.1407C35.1681 14.4221 34.8485 14.6714 34.4344 14.8891C34.0311 15.1002 33.6492 15.2214 33.2867 15.2523C32.9262 15.2824 32.6 15.2214 32.3078 15.07C32.0171 14.9173 31.7745 14.6727 31.5802 14.3357L32.5035 13.8513C32.6113 14.0248 32.7454 14.1454 32.9062 14.2138C33.067 14.2821 33.2411 14.3049 33.4287 14.2814C33.6177 14.2573 33.8106 14.1943 34.0056 14.0912C34.21 13.9846 34.3728 13.86 34.494 13.7193C34.6167 13.5753 34.6924 13.4258 34.7225 13.2704C34.752 13.113 34.7285 12.9595 34.6522 12.8108C34.5798 12.6768 34.482 12.5863 34.3587 12.5394C34.2341 12.4905 34.0867 12.4738 33.9158 12.4878C33.7457 12.4999 33.5554 12.5307 33.3457 12.581L32.677 12.7384C32.1926 12.8523 31.7685 12.8637 31.404 12.7713C31.0402 12.6761 30.7615 12.443 30.5665 12.0724C30.4064 11.7669 30.3488 11.4567 30.3936 11.1411C30.4405 10.8242 30.5739 10.5274 30.7936 10.2507C31.0134 9.972 31.3042 9.7375 31.666 9.54789C32.0338 9.35493 32.3889 9.24974 32.7326 9.23299C33.077 9.21356 33.3879 9.2752 33.6653 9.41724C33.9413 9.55861 34.1584 9.77368 34.3165 10.0624L33.4133 10.5361Z" fill="black"/>
<path d="M38.7397 12.2202L36.666 6.75234L40.2224 5.4043L40.5373 6.23443L37.9718 7.20726L38.5346 8.69132L40.9158 7.78816L41.2307 8.61895L38.8495 9.52144L39.415 11.0142L42.0019 10.0333L42.3168 10.8635L38.7397 12.2202Z" fill="black"/>
<path d="M45.2925 9.44256L43.8936 3.76498L44.922 3.51172L46.1086 8.32701L48.609 7.71061L48.8221 8.5729L45.2925 9.44256Z" fill="black"/>
<path d="M52.1336 7.47417L51.4287 1.66929L52.4806 1.54199L53.0783 6.46515L55.6343 6.15427L55.7415 7.03599L52.1336 7.47417Z" fill="black"/>
<path d="M60.2204 0.499023V6.34611H59.1611V0.499023H60.2204Z" fill="black"/>
<path d="M71.7487 0.846457L71.0438 6.65134L70.1085 6.53743L67.8533 2.25212L67.8051 2.24609L67.3253 6.19976L66.2734 6.07245L66.9783 0.267578L67.9196 0.381477L70.1715 4.67015L70.2224 4.67617L70.7028 0.719825L71.7487 0.846457Z" fill="black"/>
<path d="M78.1225 3.73017C78.1131 3.56937 78.0823 3.41929 78.03 3.28127C77.9804 3.14124 77.9094 3.01528 77.8176 2.90272C77.7278 2.79016 77.616 2.69502 77.482 2.61663C77.3493 2.5369 77.1972 2.47593 77.0277 2.43439C76.7222 2.35935 76.4321 2.36873 76.1554 2.4632C75.8793 2.55834 75.6361 2.73723 75.4264 3.00121C75.2187 3.26385 75.0619 3.60756 74.9574 4.03234C74.8515 4.46114 74.8294 4.84103 74.8911 5.17201C74.9527 5.50232 75.0847 5.77501 75.2864 5.98941C75.4887 6.20247 75.7493 6.34786 76.0669 6.42625C76.355 6.49727 76.6183 6.5033 76.8562 6.44434C77.096 6.38538 77.2984 6.2688 77.4632 6.09393C77.6287 5.91705 77.7453 5.69059 77.8129 5.41522L78.0367 5.50902L76.4957 5.12913L76.6934 4.32513L78.9975 4.89262L78.8293 5.57468C78.7094 6.0611 78.5024 6.45573 78.2076 6.75991C77.9134 7.06342 77.5617 7.2671 77.1516 7.36961C76.7429 7.47078 76.3034 7.46341 75.8338 7.3475C75.3112 7.21886 74.8803 6.98838 74.5427 6.65606C74.2077 6.3224 73.9825 5.91102 73.868 5.42259C73.7554 4.93215 73.7728 4.38744 73.9209 3.78846C74.0335 3.33018 74.199 2.93689 74.4174 2.60859C74.6371 2.28029 74.8958 2.01966 75.1926 1.82603C75.4894 1.63039 75.8123 1.50644 76.1607 1.45284C76.5091 1.3979 76.8696 1.41599 77.2408 1.50778C77.555 1.58483 77.8371 1.70342 78.0856 1.86288C78.3349 2.02033 78.5446 2.20927 78.7134 2.42903C78.8843 2.65013 79.0102 2.89267 79.09 3.15732C79.1697 3.42197 79.1965 3.69935 79.1704 3.98879L78.1225 3.73017Z" fill="black"/>
<path d="M87.085 10.3607L89.8025 5.18359L91.7435 6.20266C92.1415 6.41103 92.4362 6.66027 92.6279 6.95038C92.8215 7.24116 92.9193 7.55271 92.9213 7.88436C92.926 8.21601 92.8423 8.54566 92.6694 8.87463C92.4952 9.20628 92.2708 9.46489 91.9954 9.64914C91.72 9.83339 91.4071 9.92853 91.0561 9.93322C90.7063 9.93657 90.3311 9.83339 89.9318 9.62368L88.6454 8.94833L89.0501 8.17716L90.2105 8.78618C90.443 8.90879 90.6547 8.96775 90.845 8.96507C91.036 8.96172 91.2041 8.90812 91.3488 8.8036C91.4956 8.70042 91.6175 8.55638 91.714 8.37279C91.8105 8.18921 91.8587 8.00831 91.86 7.83076C91.8627 7.65321 91.8091 7.48706 91.6999 7.33028C91.5934 7.1735 91.4225 7.03347 91.188 6.91019L90.3291 6.45927L88.023 10.8531L87.085 10.3607Z" fill="black"/>
<path d="M93.5098 13.4242L96.831 8.6123L98.6359 9.85784C99.0058 10.1131 99.2711 10.3912 99.4332 10.6927C99.5967 10.9948 99.663 11.3064 99.6316 11.6273C99.6021 11.9469 99.4821 12.2605 99.2698 12.568C99.0567 12.8762 98.8061 13.0986 98.518 13.2353C98.2319 13.3706 97.9197 13.4129 97.5807 13.3619C97.2423 13.309 96.8886 13.1549 96.5187 12.8996L95.2337 12.0126L95.7328 11.2883L96.9006 12.095C97.117 12.2437 97.3147 12.3362 97.4936 12.3717C97.6738 12.4058 97.8366 12.3878 97.982 12.3174C98.1308 12.2464 98.2641 12.1251 98.382 11.9549C98.4999 11.7841 98.5663 11.6152 98.5823 11.4477C98.5991 11.2789 98.5609 11.1161 98.4658 10.958C98.3726 10.7985 98.2172 10.6437 97.9994 10.4937L97.2001 9.94226L94.3814 14.0259L93.5098 13.4242ZM97.501 12.9599L97.1867 15.9622L96.2139 15.2909L96.5489 12.3027L97.501 12.9599Z" fill="black"/>
<path d="M105.369 18.5156C104.951 18.9873 104.505 19.3129 104.031 19.4924C103.559 19.672 103.092 19.7162 102.631 19.6258C102.171 19.536 101.749 19.3216 101.366 18.9826C100.983 18.6429 100.719 18.2496 100.573 17.8027C100.43 17.3551 100.418 16.8861 100.538 16.395C100.661 15.9032 100.93 15.4229 101.347 14.9525C101.765 14.4808 102.209 14.1552 102.681 13.9757C103.156 13.7961 103.623 13.7512 104.083 13.8403C104.544 13.9314 104.966 14.1465 105.35 14.4855C105.733 14.8252 105.997 15.2178 106.141 15.6634C106.286 16.1103 106.298 16.58 106.175 17.0711C106.055 17.5628 105.787 18.0439 105.369 18.5156ZM104.572 17.8094C104.866 17.4777 105.062 17.1515 105.16 16.8312C105.261 16.5109 105.271 16.2114 105.192 15.9334C105.115 15.6533 104.957 15.4081 104.719 15.1977C104.481 14.9867 104.219 14.8594 103.931 14.8165C103.646 14.7716 103.349 14.8178 103.042 14.9552C102.737 15.0919 102.438 15.3264 102.144 15.6587C101.85 15.9904 101.653 16.3166 101.552 16.6369C101.454 16.9572 101.444 17.2573 101.521 17.5367C101.6 17.8154 101.759 18.06 101.996 18.2704C102.234 18.4814 102.496 18.6094 102.782 18.6536C103.07 18.6972 103.365 18.6502 103.67 18.5129C103.977 18.3762 104.278 18.141 104.572 17.8094Z" fill="black"/>
<path d="M106.337 23.2347L105.023 21.7513L109.401 17.874L110.741 19.3869C111.126 19.8217 111.369 20.2726 111.47 20.7396C111.574 21.2073 111.537 21.6696 111.36 22.1265C111.183 22.5841 110.867 23.0136 110.412 23.4163C109.956 23.8203 109.489 24.0829 109.011 24.2035C108.535 24.3254 108.068 24.3053 107.612 24.1432C107.156 23.9817 106.731 23.6796 106.337 23.2347ZM106.412 21.9369L106.989 22.5888C107.259 22.8937 107.541 23.0987 107.832 23.2039C108.125 23.3077 108.428 23.3124 108.741 23.2186C109.056 23.1228 109.38 22.9265 109.715 22.6304C110.05 22.3335 110.282 22.0361 110.412 21.7379C110.544 21.4384 110.575 21.1396 110.507 20.8415C110.442 20.5433 110.278 20.2465 110.015 19.9504L109.417 19.275L106.412 21.9369Z" fill="black"/>
<path d="M116.851 26.606L117.453 27.4777L114.309 29.6478C113.964 29.8857 113.604 30.0136 113.231 30.0311C112.858 30.0505 112.496 29.9641 112.147 29.7731C111.799 29.5808 111.49 29.2887 111.22 28.8967C110.949 28.5035 110.784 28.1102 110.728 27.7169C110.673 27.3222 110.721 26.9537 110.871 26.612C111.021 26.2703 111.269 25.9802 111.613 25.7424L114.757 23.5723L115.358 24.4439L112.288 26.5638C112.087 26.7025 111.939 26.8693 111.843 27.065C111.748 27.2626 111.711 27.473 111.733 27.6961C111.757 27.9179 111.845 28.139 111.998 28.3601C112.15 28.5812 112.326 28.742 112.525 28.8425C112.727 28.9437 112.936 28.9845 113.154 28.9638C113.371 28.9437 113.58 28.8639 113.78 28.7259L116.851 26.606Z" fill="black"/>
<path d="M119.967 35.2215L119.471 34.2762C119.612 34.1676 119.723 34.0457 119.805 33.9103C119.888 33.7743 119.943 33.6303 119.971 33.4782C119.999 33.3261 119.997 33.17 119.967 33.0099C119.939 32.8504 119.884 32.6909 119.801 32.5328C119.652 32.2514 119.451 32.039 119.196 31.8957C118.941 31.7516 118.646 31.6893 118.31 31.7087C117.976 31.7275 117.614 31.8387 117.225 32.0431C116.829 32.2514 116.528 32.4879 116.321 32.7533C116.116 33.0192 116.002 33.2966 115.977 33.5847C115.955 33.8742 116.017 34.1582 116.164 34.4383C116.245 34.5931 116.341 34.7277 116.453 34.841C116.566 34.9555 116.692 35.0453 116.83 35.111C116.968 35.178 117.115 35.2175 117.273 35.2302C117.43 35.2436 117.592 35.2256 117.759 35.1746L118.25 36.1227C117.985 36.2165 117.715 36.2607 117.437 36.256C117.16 36.2527 116.889 36.2004 116.625 36.0986C116.363 35.9954 116.119 35.8419 115.894 35.6376C115.67 35.4326 115.477 35.176 115.315 34.8671C115.076 34.4122 114.968 33.9512 114.991 33.4829C115.015 33.0152 115.171 32.5744 115.461 32.1596C115.751 31.7456 116.174 31.3925 116.73 31.1004C117.288 30.8076 117.819 30.6608 118.324 30.6602C118.831 30.6588 119.283 30.7814 119.681 31.028C120.079 31.2746 120.397 31.6243 120.634 32.0759C120.785 32.364 120.886 32.6534 120.935 32.9435C120.984 33.2336 120.981 33.5171 120.926 33.7931C120.873 34.0678 120.766 34.3271 120.605 34.5703C120.448 34.8148 120.235 35.0312 119.967 35.2215Z" fill="black"/>
<path d="M122.304 36.7631L123.134 36.4482L124.789 40.8106L123.958 41.1255L123.317 39.4351L118.68 41.1938L118.308 40.2116L122.945 38.4529L122.304 36.7631Z" fill="black"/>
<path d="M125.413 47.3853C125.649 47.3003 125.81 47.1448 125.898 46.919C125.986 46.6952 125.992 46.4313 125.917 46.1264C125.864 45.912 125.787 45.7358 125.684 45.5985C125.582 45.4611 125.465 45.3653 125.334 45.311C125.203 45.2574 125.066 45.2467 124.923 45.2802C124.805 45.3097 124.709 45.3613 124.636 45.4363C124.562 45.5134 124.507 45.6065 124.469 45.7157C124.433 45.8242 124.409 45.9415 124.396 46.0661C124.384 46.1907 124.378 46.314 124.379 46.4373L124.378 47.0028C124.38 47.2292 124.364 47.4523 124.327 47.6708C124.292 47.8912 124.228 48.0962 124.138 48.2851C124.047 48.4761 123.922 48.6403 123.762 48.7776C123.602 48.915 123.399 49.0141 123.153 49.0744C122.821 49.1568 122.506 49.1441 122.212 49.0362C121.918 48.9284 121.661 48.7307 121.439 48.4446C121.22 48.1592 121.055 47.7894 120.943 47.3344C120.833 46.8929 120.807 46.4929 120.864 46.1338C120.921 45.7767 121.059 45.4745 121.276 45.2266C121.493 44.9807 121.789 44.8038 122.162 44.6966L122.412 45.7083C122.218 45.772 122.068 45.8732 121.963 46.0125C121.859 46.1525 121.795 46.316 121.773 46.5036C121.751 46.6932 121.766 46.8956 121.819 47.11C121.875 47.3338 121.956 47.5214 122.064 47.6728C122.174 47.8262 122.301 47.9361 122.445 48.0024C122.591 48.0687 122.745 48.0821 122.908 48.0439C123.055 48.0058 123.167 47.9321 123.242 47.8235C123.319 47.7143 123.371 47.575 123.398 47.4061C123.427 47.2379 123.442 47.0457 123.444 46.8299L123.451 46.1432C123.456 45.646 123.547 45.2313 123.724 44.8996C123.903 44.5693 124.196 44.3536 124.603 44.2538C124.937 44.1714 125.253 44.1894 125.548 44.3087C125.845 44.43 126.101 44.6303 126.317 44.9104C126.535 45.1898 126.693 45.5281 126.791 45.9254C126.89 46.3288 126.907 46.6986 126.841 47.0363C126.778 47.3753 126.644 47.6627 126.439 47.8972C126.236 48.1317 125.975 48.2912 125.657 48.3749L125.413 47.3853Z" fill="black"/>
<path d="M126.556 64.4076C125.927 64.4076 125.387 64.2897 124.938 64.0538C124.491 63.8193 124.148 63.4997 123.91 63.0944C123.672 62.691 123.553 62.2328 123.553 61.7209C123.553 61.209 123.672 60.7501 123.91 60.3447C124.15 59.9414 124.493 59.6218 124.94 59.3853C125.39 59.1514 125.929 59.0342 126.556 59.0342C127.187 59.0342 127.725 59.1514 128.172 59.3853C128.622 59.6218 128.966 59.9414 129.204 60.3447C129.441 60.7501 129.56 61.209 129.56 61.7209C129.56 62.2328 129.441 62.691 129.204 63.0944C128.966 63.4997 128.622 63.8193 128.172 64.0538C127.725 64.2897 127.187 64.4076 126.556 64.4076ZM126.556 63.3429C127 63.3429 127.374 63.2733 127.679 63.1346C127.985 62.9972 128.217 62.807 128.373 62.5631C128.53 62.3199 128.609 62.0391 128.609 61.7209C128.609 61.4033 128.53 61.1226 128.373 60.8787C128.217 60.6348 127.985 60.4439 127.679 60.3052C127.374 60.1678 127 60.0995 126.556 60.0995C126.113 60.0995 125.738 60.1678 125.431 60.3052C125.127 60.4439 124.896 60.6348 124.738 60.8787C124.582 61.1226 124.503 61.4033 124.503 61.7209C124.503 62.0391 124.582 62.3199 124.738 62.5631C124.896 62.807 125.127 62.9972 125.431 63.1346C125.738 63.2733 126.113 63.3429 126.556 63.3429Z" fill="black"/>
<path d="M129.266 70.6597L129.138 71.7109L125.346 71.2506C124.931 71.2004 124.577 71.0576 124.285 70.8225C123.993 70.59 123.779 70.2858 123.645 69.9106C123.512 69.5361 123.475 69.1126 123.532 68.6403C123.589 68.1659 123.727 67.7626 123.946 67.4309C124.167 67.0993 124.447 66.8547 124.786 66.6986C125.125 66.5425 125.502 66.4896 125.918 66.5398L129.71 67.0001L129.582 68.052L125.878 67.6025C125.636 67.573 125.414 67.5998 125.213 67.6822C125.011 67.7673 124.844 67.9006 124.713 68.0822C124.583 68.2637 124.502 68.4875 124.47 68.7542C124.437 69.0208 124.462 69.2574 124.545 69.4651C124.628 69.6748 124.758 69.8436 124.935 69.9722C125.111 70.1016 125.32 70.1806 125.562 70.2094L129.266 70.6597Z" fill="black"/>
<path d="M123.32 73.3887L128.998 74.7876L128.473 76.9169C128.365 77.3531 128.199 77.7001 127.975 77.9587C127.75 78.2187 127.482 78.3909 127.171 78.4753C126.862 78.5617 126.526 78.5597 126.164 78.4706C125.8 78.3808 125.503 78.2254 125.273 78.0043C125.045 77.7852 124.895 77.5078 124.822 77.1728C124.752 76.8378 124.771 76.4519 124.878 76.0157L125.252 74.4995L126.105 74.7099L125.766 76.0881C125.703 76.3427 125.687 76.5605 125.717 76.74C125.749 76.9209 125.824 77.0663 125.941 77.1782C126.061 77.2914 126.221 77.3732 126.422 77.4227C126.623 77.4723 126.805 77.475 126.967 77.4308C127.131 77.3866 127.27 77.2928 127.384 77.148C127.5 77.004 127.589 76.8037 127.653 76.5471L127.885 75.6044L123.067 74.4171L123.32 73.3887ZM125.17 76.9558L122.251 77.7269L122.534 76.5792L125.447 75.8328L125.17 76.9558Z" fill="black"/>
<path d="M119.616 87.1074L124.794 89.8249L123.753 91.8068C123.557 92.1813 123.335 92.4607 123.087 92.647C122.84 92.8353 122.583 92.9378 122.316 92.9545C122.048 92.9733 121.786 92.9157 121.53 92.781C121.319 92.6704 121.16 92.5351 121.053 92.3756C120.947 92.2168 120.884 92.0447 120.862 91.8597C120.841 91.6748 120.855 91.4872 120.903 91.2976L120.852 91.2708C120.746 91.449 120.597 91.5957 120.406 91.7103C120.215 91.8276 119.999 91.8912 119.757 91.9019C119.515 91.9127 119.262 91.849 119 91.711C118.732 91.5703 118.525 91.3787 118.378 91.1368C118.234 90.8956 118.169 90.6122 118.184 90.2859C118.198 89.9603 118.308 89.5991 118.517 89.2032L119.616 87.1074ZM119.907 88.4568L119.378 89.4652C119.2 89.8062 119.136 90.0849 119.187 90.3033C119.239 90.5238 119.367 90.6879 119.573 90.7964C119.727 90.8768 119.885 90.911 120.047 90.9003C120.212 90.8896 120.366 90.8333 120.51 90.7301C120.656 90.6283 120.78 90.4809 120.882 90.2866L121.424 89.2528L119.907 88.4568ZM122.1 89.6072L121.613 90.5351C121.527 90.6966 121.481 90.8581 121.472 91.0189C121.464 91.1804 121.496 91.3271 121.566 91.4584C121.638 91.5931 121.749 91.6996 121.901 91.7793C122.102 91.8845 122.304 91.9006 122.508 91.8269C122.711 91.7552 122.886 91.581 123.03 91.305L123.528 90.3569L122.1 89.6072Z" fill="black"/>
<path d="M116.553 93.5322L121.365 96.8541L119.205 99.9837L118.474 99.4791L120.033 97.2212L118.726 96.3194L117.28 98.4152L116.549 97.9107L117.996 95.8149L116.682 94.9084L115.111 97.1851L114.38 96.6805L116.553 93.5322Z" fill="black"/>
<path d="M113.805 104.731C114.009 104.877 114.229 104.921 114.464 104.866C114.699 104.811 114.92 104.666 115.128 104.431C115.274 104.266 115.375 104.102 115.43 103.939C115.485 103.777 115.497 103.626 115.467 103.488C115.437 103.35 115.368 103.231 115.259 103.133C115.168 103.052 115.071 103.003 114.967 102.984C114.863 102.968 114.755 102.975 114.643 103.006C114.533 103.038 114.423 103.085 114.314 103.145C114.204 103.206 114.099 103.272 113.998 103.342L113.532 103.662C113.347 103.793 113.154 103.906 112.954 104C112.752 104.096 112.547 104.16 112.34 104.193C112.133 104.227 111.926 104.217 111.722 104.164C111.517 104.11 111.321 104 111.132 103.831C110.875 103.604 110.707 103.338 110.628 103.035C110.551 102.732 110.567 102.408 110.677 102.063C110.787 101.72 110.997 101.374 111.307 101.023C111.609 100.683 111.923 100.434 112.251 100.277C112.577 100.121 112.904 100.062 113.231 100.1C113.558 100.14 113.871 100.282 114.172 100.529L113.481 101.309C113.318 101.185 113.15 101.12 112.975 101.112C112.801 101.106 112.63 101.147 112.463 101.234C112.295 101.324 112.137 101.452 111.99 101.617C111.838 101.79 111.73 101.963 111.666 102.138C111.603 102.316 111.584 102.483 111.611 102.639C111.64 102.797 111.716 102.932 111.84 103.044C111.956 103.144 112.079 103.194 112.212 103.194C112.345 103.195 112.489 103.159 112.644 103.084C112.798 103.013 112.965 102.917 113.144 102.796L113.713 102.411C114.125 102.133 114.518 101.972 114.892 101.929C115.265 101.889 115.609 102.008 115.922 102.286C116.18 102.514 116.344 102.784 116.415 103.095C116.483 103.408 116.463 103.733 116.356 104.069C116.25 104.408 116.061 104.73 115.789 105.036C115.514 105.347 115.219 105.571 114.904 105.709C114.589 105.849 114.277 105.902 113.967 105.866C113.659 105.833 113.379 105.709 113.129 105.494L113.805 104.731Z" fill="black"/>
<path d="M111.708 108.587L112.297 109.252L108.805 112.346L108.216 111.681L109.569 110.483L106.28 106.771L107.066 106.074L110.355 109.786L111.708 108.587Z" fill="black"/>
<path d="M96.5435 119.464C96.6828 119.672 96.8725 119.792 97.1123 119.823C97.3508 119.855 97.6088 119.798 97.8868 119.652C98.0825 119.55 98.2346 119.432 98.3438 119.3C98.4523 119.167 98.5173 119.031 98.5387 118.891C98.5595 118.751 98.5367 118.616 98.4704 118.485C98.4141 118.377 98.3404 118.296 98.25 118.242C98.1575 118.19 98.0543 118.158 97.9391 118.148C97.8245 118.139 97.7059 118.143 97.582 118.161C97.458 118.179 97.3361 118.203 97.2168 118.234L96.6674 118.367C96.4483 118.424 96.2279 118.461 96.0068 118.478C95.7844 118.496 95.57 118.484 95.365 118.441C95.1579 118.399 94.969 118.317 94.7968 118.194C94.6253 118.072 94.4806 117.898 94.3626 117.674C94.2038 117.371 94.1409 117.063 94.175 116.75C94.2092 116.44 94.3392 116.143 94.5643 115.859C94.7888 115.578 95.1084 115.329 95.5231 115.111C95.9258 114.9 96.3083 114.779 96.6701 114.748C97.0306 114.718 97.3575 114.779 97.6497 114.93C97.9404 115.083 98.183 115.327 98.3766 115.664L97.454 116.149C97.3461 115.975 97.2115 115.855 97.0507 115.786C96.8906 115.718 96.7163 115.695 96.5287 115.719C96.3391 115.743 96.1468 115.806 95.9512 115.909C95.7475 116.015 95.5847 116.14 95.4628 116.281C95.3408 116.425 95.2645 116.574 95.2343 116.73C95.2048 116.887 95.2283 117.04 95.3047 117.189C95.377 117.323 95.4748 117.414 95.5988 117.461C95.7227 117.509 95.8708 117.526 96.0417 117.512C96.2118 117.5 96.4015 117.469 96.6118 117.419L97.2805 117.262C97.7642 117.148 98.1883 117.136 98.5528 117.229C98.9166 117.324 99.196 117.557 99.3903 117.928C99.5504 118.233 99.6081 118.543 99.5632 118.859C99.517 119.176 99.3836 119.473 99.1632 119.749C98.9441 120.028 98.6533 120.262 98.2909 120.452C97.9237 120.645 97.5679 120.75 97.2242 120.767C96.8798 120.786 96.5689 120.725 96.2922 120.583C96.0162 120.441 95.7991 120.226 95.641 119.938L96.5435 119.464Z" fill="black"/>
<path d="M91.2168 117.78L93.2904 123.248L89.7347 124.596L89.4198 123.766L91.9853 122.793L91.4225 121.309L89.0413 122.212L88.7264 121.382L91.1076 120.479L90.5414 118.986L87.9545 119.967L87.6396 119.137L91.2168 117.78Z" fill="black"/>
<path d="M84.6627 120.558L86.0623 126.235L85.0339 126.488L83.8466 121.673L81.3462 122.29L81.1338 121.427L84.6627 120.558Z" fill="black"/>
<path d="M77.8228 122.525L78.5276 128.33L77.4764 128.458L76.8788 123.534L74.322 123.845L74.2148 122.964L77.8228 122.525Z" fill="black"/>
<path d="M69.7354 129.501V123.654H70.7946V129.501H69.7354Z" fill="black"/>
<path d="M58.208 129.154L58.9128 123.349L59.8482 123.463L62.1027 127.748L62.151 127.754L62.6314 123.8L63.6826 123.928L62.9777 129.732L62.0371 129.618L59.7852 125.33L59.7343 125.324L59.2539 129.28L58.208 129.154Z" fill="black"/>
<path d="M51.833 126.27C51.8423 126.431 51.8731 126.581 51.9247 126.719C51.975 126.859 52.046 126.985 52.1378 127.097C52.2276 127.21 52.3395 127.305 52.4728 127.383C52.6061 127.463 52.7575 127.524 52.9277 127.566C53.2326 127.641 53.5234 127.631 53.7994 127.537C54.0754 127.442 54.3186 127.263 54.529 126.999C54.7367 126.736 54.8928 126.392 54.998 125.968C55.1032 125.539 55.1253 125.159 55.0637 124.828C55.0027 124.498 54.8707 124.225 54.6684 124.01C54.466 123.797 54.2061 123.652 53.8878 123.574C53.5997 123.503 53.3364 123.497 53.0986 123.556C52.8587 123.615 52.6564 123.731 52.4916 123.906C52.3267 124.083 52.2102 124.309 52.1425 124.585L51.918 124.491L53.4597 124.871L53.2614 125.675L50.9579 125.107L51.1261 124.425C51.246 123.939 51.4531 123.544 51.7472 123.24C52.042 122.936 52.3937 122.733 52.8031 122.63C53.2125 122.529 53.652 122.536 54.121 122.652C54.6443 122.781 55.0744 123.012 55.4121 123.344C55.7478 123.677 55.9729 124.089 56.0874 124.577C56.2 125.068 56.1819 125.612 56.0345 126.211C55.9213 126.67 55.7558 127.063 55.5381 127.391C55.3176 127.72 55.0597 127.98 54.7629 128.174C54.4654 128.37 54.1431 128.493 53.7947 128.547C53.4456 128.602 53.0858 128.584 52.714 128.492C52.3998 128.415 52.1184 128.296 51.8698 128.137C51.6199 127.98 51.4108 127.791 51.2413 127.571C51.0705 127.35 50.9452 127.107 50.8655 126.843C50.7857 126.578 50.7589 126.301 50.7851 126.011L51.833 126.27Z" fill="black"/>
<path d="M42.8707 119.639L40.1532 124.816L38.2116 123.797C37.8136 123.589 37.5188 123.339 37.3272 123.049C37.1335 122.758 37.0357 122.447 37.0344 122.115C37.0297 121.784 37.1134 121.454 37.2863 121.125C37.4605 120.793 37.6849 120.535 37.9603 120.35C38.2357 120.166 38.5486 120.071 38.8997 120.066C39.2494 120.063 39.6239 120.166 40.0232 120.376L41.3103 121.051L40.9056 121.822L39.7452 121.213C39.5127 121.091 39.301 121.032 39.11 121.035C38.9191 121.038 38.7516 121.091 38.6062 121.196C38.4595 121.299 38.3382 121.443 38.2417 121.627C38.1452 121.81 38.0963 121.991 38.0956 122.169C38.093 122.346 38.1459 122.513 38.2558 122.669C38.3623 122.826 38.5325 122.966 38.767 123.089L39.6266 123.54L41.9327 119.146L42.8707 119.639Z" fill="black"/>
<path d="M36.4459 116.576L33.124 121.388L31.3197 120.142C30.9498 119.887 30.6838 119.609 30.5217 119.308C30.3582 119.005 30.2926 118.694 30.3241 118.373C30.3529 118.053 30.4735 117.74 30.6852 117.432C30.8982 117.124 31.1488 116.902 31.4376 116.765C31.723 116.63 32.0359 116.587 32.3749 116.638C32.7126 116.691 33.067 116.845 33.4362 117.101L34.7219 117.988L34.2221 118.712L33.0543 117.905C32.8379 117.757 32.6409 117.664 32.462 117.629C32.2818 117.594 32.119 117.613 31.9729 117.683C31.8249 117.754 31.6915 117.875 31.5736 118.045C31.4557 118.216 31.3887 118.385 31.3726 118.553C31.3559 118.721 31.3947 118.884 31.4892 119.042C31.583 119.202 31.7384 119.357 31.9562 119.507L32.7548 120.058L35.5742 115.974L36.4459 116.576ZM32.4547 117.04L32.7682 114.038L33.7411 114.709L33.4061 117.698L32.4547 117.04Z" fill="black"/>
<path d="M24.588 111.485C25.0061 111.013 25.4517 110.688 25.9267 110.508C26.3984 110.328 26.8647 110.284 27.3263 110.375C27.7859 110.464 28.2074 110.679 28.5906 111.018C28.9738 111.358 29.2385 111.751 29.3839 112.198C29.5273 112.645 29.5387 113.114 29.4187 113.605C29.2961 114.097 29.0268 114.578 28.61 115.048C28.192 115.52 27.7471 115.845 27.2754 116.025C26.801 116.204 26.334 116.249 25.8738 116.16C25.4128 116.069 24.9907 115.854 24.6075 115.515C24.2242 115.175 23.9602 114.783 23.8162 114.337C23.6701 113.89 23.6587 113.42 23.7813 112.929C23.9013 112.438 24.1699 111.957 24.588 111.485ZM25.3853 112.191C25.0912 112.523 24.8949 112.849 24.7971 113.169C24.6966 113.489 24.6858 113.789 24.7642 114.067C24.842 114.347 25.0001 114.592 25.2379 114.803C25.4758 115.014 25.7384 115.141 26.0252 115.184C26.3113 115.229 26.6074 115.183 26.9149 115.045C27.2198 114.909 27.5186 114.674 27.8127 114.342C28.1069 114.01 28.3045 113.684 28.405 113.364C28.5028 113.043 28.5129 112.743 28.4352 112.464C28.3568 112.185 28.198 111.94 27.9601 111.73C27.7223 111.519 27.4603 111.391 27.1749 111.347C26.8875 111.303 26.5913 111.35 26.2871 111.488C25.9796 111.624 25.6795 111.859 25.3853 112.191Z" fill="black"/>
<path d="M23.6175 106.766L24.9313 108.249L20.5549 112.127L19.2142 110.614C18.8296 110.179 18.5864 109.728 18.4853 109.261C18.3814 108.794 18.4183 108.331 18.5951 107.874C18.7727 107.417 19.0889 106.987 19.5432 106.585C19.9988 106.181 20.4658 105.918 20.9435 105.797C21.4205 105.675 21.8868 105.695 22.3438 105.858C22.7994 106.019 23.2242 106.321 23.6175 106.766ZM23.5431 108.064L22.9655 107.412C22.6955 107.107 22.4148 106.902 22.1234 106.797C21.8299 106.693 21.5271 106.688 21.2142 106.782C20.8993 106.878 20.575 107.074 20.24 107.37C19.905 107.667 19.6725 107.965 19.5425 108.263C19.4112 108.562 19.3797 108.861 19.448 109.159C19.5137 109.457 19.6779 109.754 19.9405 110.05L20.5388 110.726L23.5431 108.064Z" fill="black"/>
<path d="M13.1046 103.395L12.5029 102.523L15.6466 100.353C15.9916 100.115 16.3507 99.9869 16.7246 99.9695C17.0978 99.95 17.4589 100.036 17.8087 100.227C18.1564 100.42 18.4653 100.712 18.7359 101.104C19.0073 101.497 19.1714 101.89 19.2277 102.284C19.2827 102.678 19.2351 103.047 19.085 103.388C18.9343 103.73 18.687 104.02 18.3426 104.258L15.1983 106.428L14.5967 105.557L17.668 103.437C17.8683 103.298 18.0164 103.131 18.1128 102.936C18.208 102.738 18.2442 102.528 18.2221 102.304C18.1986 102.083 18.1102 101.862 17.9581 101.64C17.8053 101.419 17.6298 101.259 17.4308 101.158C17.2291 101.057 17.0194 101.016 16.8023 101.037C16.5852 101.057 16.3762 101.137 16.1759 101.275L13.1046 103.395Z" fill="black"/>
<path d="M9.98878 94.778L10.4853 95.7234C10.3446 95.8319 10.2333 95.9538 10.1516 96.0892C10.0678 96.2252 10.0129 96.3692 9.98476 96.5213C9.95729 96.6734 9.95863 96.8295 9.98878 96.9897C10.0169 97.1491 10.0725 97.3086 10.1556 97.4667C10.303 97.7481 10.5047 97.9605 10.7606 98.1039C11.0145 98.2479 11.3093 98.3102 11.6457 98.2908C11.98 98.272 12.3418 98.1608 12.7311 97.9565C13.1271 97.7481 13.4286 97.5116 13.6349 97.2463C13.8393 96.9803 13.9538 96.7029 13.9786 96.4148C14.0014 96.1254 13.9391 95.8413 13.7924 95.5612C13.7106 95.4064 13.6148 95.2718 13.5036 95.1585C13.3897 95.044 13.2637 94.9542 13.1264 94.8885C12.9884 94.8215 12.8403 94.782 12.6835 94.7693C12.5254 94.7559 12.3633 94.774 12.1964 94.8249L11.7053 93.8768C11.97 93.783 12.2413 93.7388 12.5187 93.7435C12.7961 93.7469 13.0661 93.7991 13.3307 93.901C13.5934 94.0041 13.8373 94.1576 14.0624 94.3619C14.2862 94.5669 14.4791 94.8235 14.6406 95.1324C14.8798 95.5873 14.9877 96.0483 14.9642 96.5166C14.9414 96.9843 14.7846 97.4251 14.4945 97.8399C14.2051 98.2539 13.7816 98.607 13.2255 98.8991C12.6681 99.1919 12.1368 99.3387 11.6316 99.3393C11.1251 99.3407 10.6728 99.2181 10.2749 98.9715C9.87622 98.7249 9.55864 98.3752 9.32146 97.9236C9.17071 97.6355 9.07021 97.3461 9.0213 97.056C8.97172 96.7659 8.97507 96.4825 9.03001 96.2064C9.08294 95.9317 9.19014 95.6724 9.35027 95.4292C9.50839 95.1847 9.72145 94.9683 9.98878 94.778Z" fill="black"/>
<path d="M7.65135 93.2364L6.82122 93.5513L5.16699 89.1889L5.99712 88.874L6.63831 90.5644L11.2754 88.8057L11.6479 89.7879L7.01083 91.5466L7.65135 93.2364Z" fill="black"/>
<path d="M4.54287 82.6147C4.30703 82.6998 4.14556 82.8552 4.05779 83.081C3.97002 83.3048 3.96332 83.5688 4.03836 83.8736C4.09129 84.088 4.16901 84.2642 4.27152 84.4016C4.37403 84.5389 4.49061 84.6347 4.62193 84.689C4.75258 84.7426 4.88926 84.7533 5.03197 84.7198C5.15056 84.6903 5.24637 84.6388 5.32007 84.5637C5.3931 84.4867 5.44871 84.3935 5.48623 84.2843C5.52241 84.1758 5.54653 84.0585 5.55926 83.9339C5.57132 83.8093 5.57735 83.686 5.57601 83.5627L5.57802 82.9972C5.57534 82.7708 5.59142 82.5477 5.62827 82.3293C5.66378 82.1088 5.72676 81.9038 5.81788 81.7149C5.90766 81.5239 6.03295 81.3598 6.19308 81.2224C6.35321 81.0851 6.55622 80.9859 6.80211 80.9256C7.1351 80.8432 7.44866 80.8559 7.74413 80.9638C8.03692 81.0717 8.2942 81.2693 8.51597 81.5554C8.73506 81.8408 8.90122 82.2107 9.01311 82.6656C9.12165 83.1071 9.14778 83.5071 9.0915 83.8662C9.03455 84.2234 8.8972 84.5255 8.68012 84.7734C8.46237 85.0193 8.16623 85.1962 7.79304 85.3034L7.5438 84.2917C7.7381 84.228 7.88751 84.1269 7.99203 83.9875C8.09722 83.8475 8.1602 83.684 8.18298 83.4964C8.20442 83.3068 8.18901 83.1045 8.13608 82.8901C8.08114 82.6663 7.9994 82.4787 7.89153 82.3272C7.78165 82.1738 7.65435 82.0639 7.5103 81.9976C7.36491 81.9313 7.21081 81.9179 7.04733 81.9561C6.89993 81.9943 6.78871 82.068 6.71367 82.1765C6.63662 82.2857 6.58436 82.4251 6.55756 82.5939C6.52875 82.7621 6.51334 82.9544 6.51133 83.1701L6.50463 83.8569C6.49927 84.354 6.40882 84.7687 6.23194 85.1004C6.05238 85.4307 5.75959 85.6464 5.3529 85.7463C5.01857 85.8287 4.703 85.8106 4.40686 85.6913C4.11072 85.5701 3.85411 85.3697 3.63837 85.0897C3.42062 84.8103 3.2625 84.4719 3.16468 84.0746C3.06552 83.6713 3.04877 83.3014 3.11443 82.9638C3.17741 82.6247 3.31208 82.3373 3.51643 82.1028C3.71944 81.8683 3.98007 81.7088 4.29899 81.6251L4.54287 82.6147Z" fill="black"/>
</svg>
