<svg width="149" height="58" viewBox="0 0 149 58" fill="none" xmlns="http://www.w3.org/2000/svg">
<path d="M7.43396 48.516L4.51803 19.5716L9.76138 19.0434L10.9958 31.2967L24.408 29.9455L23.1736 17.6922L28.4311 17.1625L31.347 46.1069L26.0895 46.6366L24.8508 34.3409L11.4386 35.692L12.6773 47.9878L7.43396 48.516Z" fill="white"/>
<path d="M41.9352 39H36.3102L46.5517 9.90909H53.0574L63.313 39H57.688L49.9181 15.875H49.6909L41.9352 39ZM42.1199 27.5938H57.4608V31.8267H42.1199V27.5938Z" fill="white"/>
<path d="M91.1056 17.9091V47H86.4181L72.7108 27.1847H72.4693V47H67.1994V17.9091H71.9153L85.6085 37.7386H85.8642V17.9091H91.1056Z" fill="white"/>
<path d="M122.1 27.7244H116.787C116.636 26.8532 116.357 26.0814 115.949 25.4091C115.542 24.7273 115.036 24.1496 114.43 23.6761C113.823 23.2027 113.132 22.8475 112.356 22.6108C111.589 22.3646 110.76 22.2415 109.87 22.2415C108.288 22.2415 106.887 22.6392 105.665 23.4347C104.444 24.2206 103.487 25.3759 102.796 26.9006C102.105 28.4157 101.759 30.267 101.759 32.4545C101.759 34.6799 102.105 36.5549 102.796 38.0795C103.497 39.5947 104.453 40.7405 105.665 41.517C106.887 42.2841 108.284 42.6676 109.856 42.6676C110.727 42.6676 111.541 42.554 112.299 42.3267C113.066 42.09 113.752 41.7443 114.358 41.2898C114.974 40.8352 115.49 40.2765 115.907 39.6136C116.333 38.9508 116.626 38.1932 116.787 37.3409L122.1 37.3693C121.901 38.7519 121.47 40.0492 120.807 41.2614C120.154 42.4735 119.297 43.5436 118.236 44.4716C117.176 45.3902 115.935 46.1098 114.515 46.6307C113.094 47.142 111.518 47.3977 109.785 47.3977C107.228 47.3977 104.946 46.8059 102.938 45.6222C100.93 44.4384 99.349 42.7292 98.1937 40.4943C97.0384 38.2595 96.4608 35.5795 96.4608 32.4545C96.4608 29.3201 97.0431 26.6402 98.2079 24.4148C99.3727 22.1799 100.959 20.4706 102.966 19.2869C104.974 18.1032 107.247 17.5114 109.785 17.5114C111.404 17.5114 112.91 17.7386 114.302 18.1932C115.694 18.6477 116.934 19.3153 118.023 20.196C119.112 21.0672 120.007 22.1373 120.708 23.4062C121.418 24.6657 121.882 26.1051 122.1 27.7244Z" fill="white"/>
<path d="M142.561 18.755L134.618 46.7404L129.548 45.3014L137.492 17.316L142.561 18.755Z" fill="white"/>
</svg>
