<svg width="149" height="58" viewBox="0 0 149 58" fill="none" xmlns="http://www.w3.org/2000/svg">
<path d="M7.43351 48.5156L4.51758 19.5712L9.76093 19.043L10.9953 31.2963L24.4075 29.9451L23.1731 17.6918L28.4306 17.1621L31.3465 46.1065L26.089 46.6362L24.8503 34.3405L11.4381 35.6916L12.6768 47.9874L7.43351 48.5156Z" fill="#491E0A"/>
<path d="M41.9355 39.0001H36.3105L46.552 9.90918H53.0577L63.3133 39.0001H57.6883L49.9184 15.8751H49.6912L41.9355 39.0001ZM42.1202 27.5939H57.4611V31.8268H42.1202V27.5939Z" fill="#491E0A"/>
<path d="M91.1054 17.9092V47.0001H86.4179L72.7106 27.1848H72.4691V47.0001H67.1992V17.9092H71.9151L85.6083 37.7387H85.864V17.9092H91.1054Z" fill="#491E0A"/>
<path d="M122.1 27.7247H116.787C116.636 26.8535 116.357 26.0817 115.949 25.4094C115.542 24.7276 115.036 24.1499 114.43 23.6764C113.823 23.203 113.132 22.8478 112.356 22.6111C111.589 22.3649 110.76 22.2418 109.87 22.2418C108.288 22.2418 106.887 22.6395 105.665 23.435C104.444 24.2209 103.487 25.3762 102.796 26.9009C102.105 28.416 101.759 30.2673 101.759 32.4548C101.759 34.6802 102.105 36.5552 102.796 38.0798C103.497 39.595 104.453 40.7408 105.665 41.5173C106.887 42.2844 108.284 42.6679 109.856 42.6679C110.727 42.6679 111.541 42.5543 112.299 42.327C113.066 42.0903 113.752 41.7446 114.358 41.2901C114.974 40.8355 115.49 40.2768 115.907 39.6139C116.333 38.9511 116.626 38.1935 116.787 37.3412L122.1 37.3696C121.901 38.7522 121.47 40.0495 120.807 41.2617C120.154 42.4738 119.297 43.5439 118.236 44.4719C117.176 45.3905 115.935 46.1101 114.515 46.631C113.094 47.1423 111.518 47.398 109.785 47.398C107.228 47.398 104.946 46.8062 102.938 45.6225C100.93 44.4387 99.3491 42.7295 98.1938 40.4946C97.0385 38.2598 96.4609 35.5798 96.4609 32.4548C96.4609 29.3204 97.0432 26.6405 98.208 24.4151C99.3728 22.1802 100.959 20.4709 102.966 19.2872C104.974 18.1035 107.247 17.5117 109.785 17.5117C111.404 17.5117 112.91 17.7389 114.302 18.1935C115.694 18.648 116.934 19.3156 118.023 20.1963C119.112 21.0675 120.007 22.1376 120.708 23.4065C121.418 24.666 121.882 26.1054 122.1 27.7247Z" fill="#491E0A"/>
<path d="M142.561 18.7554L134.618 46.7408L129.548 45.3018L137.492 17.3164L142.561 18.7554Z" fill="#491E0A"/>
</svg>
