<svg width="82" height="82" viewBox="0 0 82 82" fill="none" xmlns="http://www.w3.org/2000/svg">
<path d="M61.5 61.5C62.8592 61.5 64.1628 60.96 65.1239 59.9989C66.085 59.0378 66.625 57.7342 66.625 56.375V43.8597C66.625 42.5005 66.085 41.197 65.1239 40.2358C64.1628 39.2747 62.8592 38.7348 61.5 38.7348H54.3865C54.3865 36.9342 54.4924 35.1336 54.7042 33.333C55.022 31.4265 55.5515 29.7318 56.293 28.249C57.0344 26.7662 57.9893 25.5994 59.1578 24.7486C60.3195 23.7954 61.8023 23.3188 63.6063 23.3188V15.375C60.6407 15.375 58.044 16.0105 55.8163 17.2815C53.6041 18.5365 51.7034 20.2743 50.2557 22.3655C48.7982 24.6674 47.725 27.1911 47.0782 29.8378C46.4242 32.7577 46.1044 35.7425 46.125 38.7348V56.375C46.125 57.7342 46.6649 59.0378 47.626 59.9989C48.5872 60.96 49.8907 61.5 51.25 61.5H61.5ZM30.75 61.5C32.1092 61.5 33.4128 60.96 34.3739 59.9989C35.335 59.0378 35.875 57.7342 35.875 56.375V43.8597C35.875 42.5005 35.335 41.197 34.3739 40.2358C33.4128 39.2747 32.1092 38.7348 30.75 38.7348H23.6365C23.6365 36.9342 23.7424 35.1336 23.9542 33.333C24.2754 31.4265 24.805 29.7318 25.543 28.249C26.2844 26.7662 27.2393 25.5994 28.4078 24.7486C29.5695 23.7954 31.0523 23.3188 32.8563 23.3188V15.375C29.8907 15.375 27.294 16.0105 25.0663 17.2815C22.8541 18.5365 20.9534 20.2743 19.5057 22.3655C18.0482 24.6674 16.975 27.1911 16.3282 29.8378C15.6742 32.7577 15.3544 35.7425 15.375 38.7348V56.375C15.375 57.7342 15.9149 59.0378 16.876 59.9989C17.8372 60.96 19.1407 61.5 20.5 61.5H30.75Z" fill="#C7C7C7"/>
</svg>
