<svg width="208" height="198" viewBox="0 0 208 198" fill="none" xmlns="http://www.w3.org/2000/svg">
<g clip-path="url(#clip0_56_329)">
<path d="M133.549 40.4098L133.91 39.7721L138.522 42.3121L138.162 42.9495L136.375 41.9656L134.36 45.5268L133.321 44.9546L135.336 41.3937L133.549 40.4098Z" fill="white"/>
<path d="M139.293 50.03C139.161 49.9432 139.044 49.8553 138.942 49.7666C138.842 49.68 138.766 49.6058 138.714 49.5433L139.348 49.1619C139.467 49.2833 139.583 49.38 139.695 49.4515C139.807 49.523 139.924 49.5622 140.044 49.5699C140.166 49.5797 140.299 49.55 140.441 49.4795L140.645 49.3784L141.418 45.4551L142.45 46.1306L141.722 48.9308L141.765 48.9592L144.398 47.4064L145.433 48.0837L141.287 50.2341C141.093 50.3364 140.89 50.4001 140.679 50.426C140.466 50.4527 140.246 50.4344 140.017 50.3713C139.789 50.3107 139.548 50.1968 139.293 50.03Z" fill="white"/>
<path d="M145.457 54.2322L149.071 50.6623L149.971 51.3527L149.536 51.7821L149.589 51.823C149.701 51.796 149.835 51.7804 149.993 51.775C150.152 51.7692 150.33 51.7966 150.528 51.8583C150.727 51.9192 150.94 52.0368 151.168 52.2116C151.468 52.4417 151.687 52.7005 151.823 52.9877C151.964 53.2754 152.003 53.5733 151.943 53.8813C151.885 54.1898 151.711 54.4881 151.418 54.7763C151.13 55.0616 150.814 55.2501 150.473 55.342C150.131 55.4344 149.787 55.4404 149.44 55.3602C149.093 55.28 148.767 55.123 148.462 54.889C148.239 54.7183 148.08 54.5518 147.984 54.3898C147.887 54.2279 147.83 54.0777 147.811 53.9393C147.795 53.8007 147.795 53.6813 147.81 53.581L147.772 53.5519L146.372 54.9345L145.457 54.2322ZM148.655 52.6491C148.485 52.8169 148.371 52.9915 148.314 53.1719C148.258 53.3535 148.263 53.5319 148.325 53.7062C148.391 53.8809 148.521 54.0424 148.715 54.1912C148.917 54.3461 149.123 54.4402 149.332 54.4728C149.543 54.5042 149.747 54.4835 149.944 54.4102C150.143 54.337 150.325 54.2198 150.489 54.0573C150.652 53.896 150.763 53.7264 150.82 53.5485C150.878 53.3705 150.874 53.1936 150.81 53.0176C150.745 52.8421 150.611 52.6757 150.407 52.5193C150.212 52.3693 150.011 52.2763 149.805 52.2405C149.599 52.2043 149.398 52.2213 149.201 52.2911C149.007 52.3618 148.825 52.4812 148.655 52.6491Z" fill="white"/>
<path d="M152.928 58.4461L155.873 56.1096L156.733 56.8607L153.787 59.1972L152.928 58.4461ZM156.723 56.1555C156.587 56.0367 156.506 55.9055 156.481 55.7618C156.457 55.6172 156.497 55.5038 156.6 55.4217C156.705 55.3383 156.843 55.3111 157.014 55.3388C157.186 55.3656 157.341 55.4386 157.477 55.5578C157.614 55.6781 157.695 55.8096 157.717 55.953C157.742 56.0967 157.702 56.2101 157.598 56.2931C157.494 56.3752 157.356 56.4029 157.184 56.376C157.014 56.3494 156.861 56.2758 156.723 56.1555Z" fill="white"/>
<path d="M158.398 63.6069C158.06 63.2702 157.841 62.9362 157.74 62.6042C157.641 62.2738 157.651 61.9639 157.771 61.6746C157.894 61.3856 158.119 61.137 158.446 60.9288C158.776 60.7193 159.132 60.6006 159.516 60.5723C159.902 60.5427 160.286 60.6034 160.667 60.754C161.052 60.9052 161.41 61.1453 161.74 61.4747C162.015 61.7483 162.21 62.0214 162.325 62.2939C162.442 62.5671 162.476 62.8224 162.427 63.0602C162.379 63.2968 162.247 63.4981 162.031 63.6643L161.268 62.9046C161.393 62.7746 161.45 62.6186 161.438 62.4371C161.429 62.2558 161.328 62.0691 161.135 61.8776C160.972 61.7149 160.787 61.5993 160.579 61.5301C160.372 61.4596 160.156 61.44 159.931 61.4702C159.707 61.5023 159.486 61.5875 159.268 61.7263C159.047 61.8667 158.891 62.0208 158.8 62.1894C158.71 62.3568 158.683 62.5287 158.719 62.7046C158.759 62.8811 158.861 63.0525 159.027 63.2177C159.145 63.3349 159.271 63.426 159.406 63.4913C159.544 63.5573 159.685 63.5959 159.83 63.6069C159.974 63.6179 160.117 63.5979 160.257 63.547L161.02 64.3067C160.772 64.4335 160.498 64.4927 160.199 64.4836C159.901 64.474 159.597 64.3965 159.287 64.2507C158.978 64.1037 158.682 63.8894 158.398 63.6069Z" fill="white"/>
<path d="M163.41 68.9655C163.217 68.7394 163.084 68.5168 163.01 68.2975C162.938 68.0786 162.938 67.8787 163.007 67.697C163.078 67.517 163.23 67.3709 163.464 67.2589C163.665 67.1623 163.864 67.1195 164.058 67.1307C164.253 67.1419 164.445 67.1927 164.634 67.283C164.822 67.3737 165.005 67.4896 165.183 67.6311C165.364 67.7733 165.537 67.9267 165.704 68.0907C165.904 68.2892 166.067 68.4495 166.195 68.5708C166.325 68.6919 166.433 68.7731 166.521 68.8137C166.611 68.8555 166.696 68.8571 166.777 68.8187L166.791 68.8121C166.966 68.7279 167.057 68.6112 167.064 68.4617C167.072 68.3122 166.992 68.1397 166.826 67.9452C166.65 67.7394 166.466 67.5979 166.273 67.5203C166.082 67.4442 165.907 67.4146 165.749 67.4316L165.191 66.5941C165.46 66.552 165.729 66.5672 165.996 66.6398C166.264 66.7117 166.523 66.8329 166.771 67.0035C167.021 67.1734 167.252 67.383 167.465 67.6321C167.612 67.8035 167.737 67.9841 167.842 68.1735C167.947 68.3628 168.014 68.5502 168.041 68.7355C168.07 68.9197 168.042 69.0924 167.957 69.2532C167.872 69.4157 167.712 69.5538 167.475 69.6672L165.089 70.8117L164.399 70.0045L164.889 69.7698L164.865 69.7419C164.723 69.7385 164.568 69.7108 164.402 69.6596C164.239 69.6095 164.072 69.5272 163.901 69.4132C163.732 69.3 163.568 69.151 163.41 68.9655ZM164.214 68.887C164.358 69.0555 164.516 69.1857 164.688 69.2776C164.862 69.3687 165.033 69.4206 165.201 69.4337C165.371 69.4483 165.521 69.4243 165.653 69.3609L166.073 69.1594C166.029 69.1436 165.97 69.1083 165.898 69.0538C165.826 69.0007 165.751 68.9392 165.671 68.8684C165.591 68.798 165.513 68.7271 165.437 68.6567C165.362 68.5862 165.296 68.5248 165.241 68.4728C165.117 68.3557 164.993 68.2571 164.87 68.1767C164.747 68.0963 164.626 68.0442 164.508 68.0203C164.391 67.9958 164.278 68.0097 164.17 68.0617C164.015 68.1356 163.946 68.2482 163.964 68.3991C163.981 68.5496 164.065 68.7124 164.214 68.887Z" fill="white"/>
<path d="M173.343 73.0419L168.264 74.9151L167.62 74.0444L172.699 72.1716L173.343 73.0419Z" fill="white"/>
<path d="M176.507 77.6178L171.194 79.1553L170.612 78.2644L175.924 76.7268L176.507 77.6178Z" fill="white"/>
<path d="M172.06 83.4363C171.992 83.3123 171.94 83.195 171.903 83.0854C171.866 82.9773 171.844 82.8896 171.837 82.8222L172.72 82.8808C172.752 83.0215 172.797 83.1436 172.856 83.2473C172.915 83.3511 173 83.4354 173.113 83.5003C173.224 83.5675 173.374 83.6132 173.562 83.637L173.831 83.6699L177.325 81.4203L177.856 82.3862L175.191 83.9044L175.213 83.9446L178.86 84.2097L179.393 85.178L173.858 84.5633C173.597 84.5352 173.355 84.4775 173.132 84.3896C172.906 84.3022 172.705 84.1807 172.526 84.0244C172.347 83.8705 172.191 83.6746 172.06 83.4363Z" fill="white"/>
<path d="M178.513 93.1456L183.002 93.0125L183.306 93.902L182.544 93.9246L182.559 93.9712C182.845 94.0457 183.092 94.176 183.301 94.362C183.513 94.5479 183.663 94.7729 183.754 95.0371C183.845 95.3045 183.848 95.5319 183.763 95.7199C183.68 95.9094 183.525 96.0455 183.298 96.1282L183.312 96.1696C183.591 96.2494 183.84 96.3911 184.059 96.594C184.281 96.7988 184.441 97.0445 184.539 97.3306C184.663 97.6941 184.634 97.9943 184.452 98.232C184.269 98.4693 183.928 98.5954 183.427 98.6101L180.414 98.6993L180.094 97.7662L182.944 97.6818C183.222 97.6734 183.404 97.6024 183.488 97.4681C183.574 97.3341 183.584 97.1729 183.52 96.9839C183.443 96.7596 183.303 96.5864 183.1 96.4642C182.899 96.3436 182.672 96.287 182.419 96.2947L179.619 96.3774L179.307 95.4645L182.2 95.3792C182.432 95.3723 182.596 95.3048 182.692 95.1775C182.789 95.0518 182.803 94.8903 182.736 94.6931C182.69 94.5596 182.609 94.4387 182.494 94.3313C182.38 94.2238 182.242 94.1397 182.08 94.0786C181.919 94.0178 181.746 93.9899 181.561 93.9956L178.832 94.0761L178.513 93.1456Z" fill="white"/>
<path d="M181.434 103.234C181.382 102.985 181.388 102.764 181.451 102.572C181.516 102.381 181.64 102.235 181.822 102.133C182.005 102.034 182.247 101.995 182.55 102.017C182.81 102.036 183.034 102.092 183.222 102.186C183.409 102.28 183.568 102.403 183.7 102.551C183.831 102.701 183.942 102.866 184.03 103.048C184.122 103.231 184.199 103.419 184.263 103.612C184.338 103.845 184.402 104.034 184.454 104.179C184.508 104.325 184.565 104.432 184.627 104.5C184.691 104.57 184.775 104.609 184.879 104.617L184.897 104.618C185.124 104.634 185.287 104.59 185.388 104.484C185.488 104.378 185.516 104.218 185.472 104.002C185.424 103.775 185.329 103.591 185.185 103.449C185.042 103.309 184.886 103.21 184.718 103.153L184.683 102.296C184.978 102.385 185.236 102.515 185.457 102.686C185.68 102.857 185.862 103.059 186.003 103.293C186.146 103.527 186.246 103.782 186.303 104.057C186.342 104.247 186.355 104.434 186.342 104.618C186.329 104.802 186.278 104.968 186.19 105.115C186.104 105.262 185.969 105.375 185.784 105.454C185.599 105.535 185.354 105.565 185.047 105.543L181.957 105.321L181.773 104.428L182.407 104.474L182.401 104.443C182.261 104.377 182.124 104.289 181.99 104.179C181.859 104.07 181.744 103.936 181.644 103.778C181.546 103.621 181.476 103.44 181.434 103.234ZM182.283 103.533C182.322 103.72 182.398 103.884 182.513 104.027C182.629 104.17 182.767 104.283 182.927 104.368C183.086 104.453 183.252 104.502 183.422 104.514L183.966 104.553C183.932 104.522 183.895 104.471 183.857 104.399C183.819 104.329 183.782 104.25 183.746 104.164C183.71 104.077 183.677 103.991 183.646 103.906C183.614 103.822 183.587 103.748 183.564 103.686C183.514 103.546 183.452 103.419 183.379 103.307C183.306 103.193 183.218 103.102 183.115 103.032C183.014 102.963 182.893 102.923 182.753 102.913C182.553 102.898 182.414 102.95 182.338 103.067C182.261 103.185 182.243 103.34 182.283 103.533Z" fill="white"/>
<path d="M182.539 110.209C182.513 109.904 182.584 109.646 182.752 109.435C182.921 109.224 183.179 109.077 183.526 108.994C183.873 108.911 184.304 108.91 184.817 108.992C185.337 109.074 185.781 109.214 186.151 109.412C186.522 109.613 186.809 109.848 187.013 110.12C187.218 110.392 187.333 110.677 187.359 110.975C187.378 111.202 187.347 111.382 187.266 111.514C187.187 111.646 187.087 111.744 186.964 111.81C186.843 111.876 186.728 111.923 186.618 111.952L186.622 111.99L188.954 112.36L189.032 113.277L182.797 112.289L182.72 111.39L183.457 111.507L183.452 111.451C183.335 111.386 183.208 111.298 183.073 111.189C182.939 111.08 182.821 110.945 182.72 110.784C182.618 110.623 182.558 110.432 182.539 110.209ZM183.465 110.608C183.481 110.801 183.558 110.976 183.696 111.133C183.835 111.29 184.021 111.421 184.255 111.528C184.488 111.635 184.756 111.712 185.058 111.76C185.361 111.808 185.621 111.814 185.838 111.779C186.055 111.745 186.22 111.67 186.332 111.553C186.445 111.438 186.493 111.282 186.476 111.084C186.459 110.881 186.38 110.7 186.241 110.544C186.101 110.387 185.916 110.256 185.685 110.151C185.454 110.046 185.193 109.971 184.903 109.925C184.61 109.879 184.352 109.872 184.129 109.905C183.908 109.94 183.737 110.015 183.617 110.13C183.498 110.248 183.448 110.407 183.465 110.608Z" fill="white"/>
<path d="M182.726 117.437C182.742 117.057 182.854 116.754 183.061 116.525C183.269 116.299 183.557 116.156 183.923 116.095C184.291 116.036 184.72 116.065 185.21 116.185C185.692 116.302 186.112 116.479 186.47 116.716C186.83 116.954 187.106 117.232 187.298 117.549C187.492 117.867 187.581 118.206 187.566 118.568C187.556 118.801 187.5 119.01 187.398 119.194C187.298 119.38 187.148 119.529 186.948 119.642C186.748 119.755 186.497 119.822 186.194 119.841C185.893 119.861 185.537 119.821 185.126 119.721L184.788 119.638L184.918 116.537L185.663 116.718L185.568 118.965C185.78 119.014 185.969 119.023 186.137 118.991C186.307 118.96 186.442 118.891 186.543 118.784C186.644 118.679 186.698 118.541 186.706 118.37C186.713 118.188 186.665 118.015 186.561 117.85C186.459 117.686 186.321 117.544 186.147 117.424C185.976 117.306 185.785 117.22 185.576 117.167L184.926 117.009C184.654 116.943 184.418 116.926 184.219 116.959C184.023 116.992 183.87 117.069 183.76 117.188C183.652 117.308 183.594 117.464 183.586 117.659C183.581 117.788 183.598 117.911 183.638 118.027C183.681 118.143 183.745 118.251 183.831 118.35C183.917 118.449 184.026 118.535 184.156 118.606L184.005 119.41C183.735 119.291 183.501 119.133 183.304 118.936C183.109 118.741 182.96 118.516 182.858 118.26C182.758 118.005 182.714 117.73 182.726 117.437Z" fill="white"/>
<path d="M185.922 129.386L185.082 129.077L185.593 126.967L186.433 127.277L185.922 129.386ZM181.697 126.106L186.74 127.965C187.05 128.079 187.296 128.224 187.478 128.399C187.659 128.575 187.781 128.767 187.842 128.973C187.903 129.18 187.909 129.386 187.859 129.592C187.823 129.737 187.777 129.861 187.72 129.963C187.662 130.065 187.615 130.139 187.578 130.184L186.779 129.707C186.801 129.677 186.826 129.637 186.853 129.588C186.882 129.54 186.905 129.482 186.921 129.416C186.959 129.259 186.937 129.13 186.855 129.029C186.774 128.931 186.644 128.848 186.464 128.782L181.493 126.949L181.697 126.106Z" fill="white"/>
<path d="M180.428 130.674L184.951 132.655L184.669 133.436L183.916 133.106L183.903 133.141C184.141 133.318 184.304 133.513 184.391 133.726C184.479 133.942 184.488 134.148 184.417 134.344C184.401 134.388 184.38 134.437 184.354 134.489C184.33 134.544 184.306 134.588 184.283 134.62L183.303 134.191C183.331 134.163 183.364 134.116 183.403 134.046C183.442 133.98 183.475 133.912 183.499 133.844C183.552 133.697 183.558 133.546 183.516 133.392C183.475 133.24 183.393 133.099 183.27 132.968C183.147 132.836 182.989 132.729 182.797 132.644L180.138 131.48L180.428 130.674Z" fill="white"/>
<path d="M177.826 136.621C177.986 136.306 178.219 136.082 178.525 135.949C178.831 135.817 179.186 135.774 179.59 135.823C179.994 135.874 180.422 136.017 180.876 136.253C181.33 136.489 181.695 136.758 181.973 137.061C182.249 137.366 182.423 137.683 182.494 138.012C182.566 138.341 182.522 138.664 182.362 138.978C182.202 139.293 181.969 139.517 181.662 139.65C181.356 139.783 181.001 139.824 180.595 139.773C180.19 139.723 179.76 139.58 179.306 139.344C178.852 139.108 178.488 138.838 178.213 138.534C177.938 138.232 177.765 137.916 177.693 137.587C177.622 137.258 177.666 136.936 177.826 136.621ZM178.653 137.056C178.567 137.227 178.558 137.403 178.627 137.585C178.699 137.767 178.829 137.942 179.018 138.111C179.206 138.282 179.433 138.436 179.7 138.575C179.969 138.715 180.227 138.812 180.473 138.868C180.721 138.926 180.939 138.931 181.127 138.884C181.315 138.836 181.452 138.727 181.539 138.556C181.628 138.381 181.637 138.202 181.566 138.018C181.495 137.836 181.364 137.659 181.174 137.488C180.985 137.319 180.756 137.165 180.487 137.025C180.221 136.886 179.964 136.788 179.718 136.731C179.472 136.676 179.255 136.672 179.067 136.719C178.88 136.769 178.742 136.881 178.653 137.056Z" fill="white"/>
<path d="M175.716 140.663L179.886 143.309L179.403 143.97L178.694 143.52L178.669 143.555C178.864 143.767 178.976 143.987 179.007 144.213C179.039 144.441 178.984 144.652 178.84 144.849C178.695 145.048 178.504 145.171 178.267 145.22C178.031 145.272 177.775 145.251 177.499 145.158L177.476 145.188C177.66 145.4 177.765 145.627 177.79 145.868C177.816 146.112 177.751 146.34 177.596 146.553C177.399 146.823 177.116 146.967 176.749 146.984C176.382 147 175.966 146.861 175.501 146.566L172.702 144.79L173.209 144.096L175.855 145.776C176.114 145.94 176.339 146.012 176.529 145.991C176.721 145.971 176.868 145.891 176.97 145.751C177.092 145.584 177.113 145.406 177.034 145.218C176.955 145.032 176.798 144.864 176.563 144.715L173.962 143.064L174.458 142.386L177.145 144.092C177.36 144.228 177.566 144.291 177.761 144.281C177.956 144.273 178.106 144.195 178.213 144.048C178.286 143.949 178.316 143.835 178.303 143.708C178.292 143.582 178.239 143.453 178.144 143.322C178.051 143.192 177.918 143.072 177.746 142.963L175.211 141.354L175.716 140.663Z" fill="white"/>
<path d="M167.954 149.817L171.629 152.982L170.973 153.515L170.349 152.977L170.315 153.005C170.465 153.235 170.528 153.458 170.506 153.674C170.485 153.891 170.378 154.079 170.183 154.237C169.986 154.397 169.759 154.48 169.503 154.485C169.247 154.493 168.987 154.43 168.724 154.297L168.694 154.322C168.834 154.55 168.888 154.778 168.856 155.007C168.825 155.238 168.704 155.439 168.493 155.611C168.225 155.828 167.899 155.914 167.516 155.868C167.133 155.821 166.737 155.621 166.327 155.268L163.86 153.144L164.548 152.585L166.881 154.594C167.109 154.79 167.324 154.895 167.525 154.907C167.728 154.921 167.899 154.872 168.038 154.759C168.203 154.624 168.267 154.463 168.23 154.274C168.193 154.088 168.071 153.905 167.864 153.727L165.572 151.753L166.245 151.206L168.613 153.246C168.803 153.409 169 153.503 169.204 153.527C169.407 153.551 169.581 153.505 169.727 153.386C169.825 153.306 169.883 153.206 169.9 153.085C169.919 152.966 169.895 152.837 169.828 152.699C169.763 152.563 169.654 152.429 169.503 152.299L167.268 150.374L167.954 149.817Z" fill="white"/>
<path d="M161.092 154.969L164.455 158.356L163.685 158.836L160.322 155.449L161.092 154.969ZM164.545 159.078C164.667 159.002 164.813 158.979 164.984 159.008C165.157 159.038 165.302 159.113 165.421 159.232C165.54 159.353 165.598 159.482 165.593 159.621C165.59 159.761 165.527 159.869 165.405 159.945C165.282 160.022 165.135 160.045 164.963 160.013C164.792 159.984 164.647 159.909 164.527 159.789C164.409 159.67 164.352 159.54 164.355 159.4C164.358 159.262 164.422 159.155 164.545 159.078Z" fill="white"/>
<path d="M160.662 162.296L156.482 157.607L157.303 157.182L161.483 161.871L160.662 162.296Z" fill="white"/>
<path d="M153.384 160.612L154.192 161.651L154.051 161.708L153.845 163.715L152.816 164.129L153.075 161.666L153.257 161.593L153.384 160.612ZM153.299 159.142L157.073 164.017L156.193 164.37L152.418 159.496L153.299 159.142ZM150.953 160.084L153.458 161.259L153.335 162.104L149.9 160.507L150.953 160.084Z" fill="white"/>
<path d="M140.898 162.992C141.303 162.905 141.7 162.912 142.091 163.014C142.482 163.115 142.844 163.297 143.177 163.559C143.509 163.821 143.788 164.151 144.014 164.549C144.241 164.947 144.358 165.313 144.367 165.647C144.374 165.981 144.276 166.263 144.073 166.492C143.871 166.722 143.567 166.88 143.163 166.967C142.758 167.054 142.36 167.047 141.969 166.946C141.578 166.844 141.217 166.661 140.884 166.397C140.55 166.134 140.27 165.803 140.044 165.405C139.817 165.007 139.701 164.642 139.695 164.31C139.687 163.977 139.785 163.696 139.987 163.467C140.19 163.238 140.493 163.079 140.898 162.992ZM141.307 163.72C141.087 163.767 140.936 163.863 140.852 164.007C140.769 164.152 140.746 164.328 140.783 164.534C140.818 164.74 140.902 164.96 141.035 165.194C141.169 165.43 141.327 165.635 141.51 165.809C141.691 165.986 141.888 166.115 142.1 166.197C142.312 166.279 142.528 166.296 142.747 166.249C142.972 166.201 143.127 166.103 143.211 165.958C143.294 165.812 143.318 165.635 143.282 165.427C143.245 165.221 143.16 165.001 143.026 164.765C142.892 164.531 142.736 164.327 142.555 164.152C142.373 163.977 142.176 163.849 141.963 163.767C141.75 163.687 141.531 163.672 141.307 163.72Z" fill="white"/>
<path d="M135.608 164.027L137.416 167.941L136.427 168.065L136.126 167.412L136.081 167.418C136.106 167.654 136.052 167.845 135.917 167.991C135.781 168.139 135.589 168.229 135.341 168.26C135.285 168.267 135.22 168.272 135.149 168.276C135.076 168.281 135.014 168.283 134.963 168.28L134.571 167.431C134.621 167.439 134.695 167.443 134.793 167.441C134.891 167.442 134.982 167.436 135.069 167.426C135.255 167.402 135.405 167.345 135.519 167.253C135.633 167.164 135.702 167.05 135.728 166.912C135.754 166.774 135.728 166.622 135.651 166.455L134.588 164.154L135.608 164.027Z" fill="white"/>
<path d="M123.992 168.749L123.777 168.029L126.459 168.039L126.674 168.759L123.992 168.749ZM124.823 164.805L126.115 169.13C126.194 169.396 126.197 169.617 126.124 169.793C126.049 169.969 125.917 170.101 125.729 170.187C125.54 170.274 125.315 170.317 125.053 170.316C124.868 170.315 124.7 170.302 124.548 170.275C124.397 170.249 124.284 170.226 124.209 170.205L124.206 169.485C124.255 169.497 124.315 169.51 124.388 169.522C124.461 169.536 124.54 169.543 124.625 169.543C124.823 169.544 124.952 169.503 125.009 169.419C125.065 169.337 125.07 169.219 125.024 169.064L123.75 164.801L124.823 164.805Z" fill="white"/>
<path d="M118.935 169.83L117.812 164.577L118.899 164.649L120.022 169.902L118.935 169.83Z" fill="white"/>
<path d="M112.321 163.953C112.617 163.994 112.888 164.074 113.135 164.194C113.38 164.316 113.582 164.474 113.74 164.667C113.896 164.86 113.988 165.084 114.018 165.34C114.043 165.56 114.016 165.735 113.936 165.866C113.855 165.996 113.736 166.093 113.578 166.156C113.419 166.22 113.238 166.259 113.032 166.274C112.825 166.291 112.609 166.294 112.385 166.283C112.114 166.269 111.895 166.26 111.726 166.255C111.559 166.252 111.439 166.266 111.366 166.296C111.292 166.327 111.26 166.387 111.271 166.475L111.272 166.49C111.294 166.682 111.379 166.839 111.527 166.963C111.675 167.086 111.876 167.165 112.132 167.2C112.401 167.237 112.609 167.217 112.756 167.141C112.9 167.064 112.992 166.962 113.031 166.836L114.072 167.099C114.019 167.325 113.908 167.504 113.74 167.638C113.572 167.773 113.359 167.862 113.098 167.905C112.838 167.949 112.545 167.949 112.219 167.904C111.995 167.874 111.768 167.821 111.54 167.746C111.313 167.672 111.1 167.571 110.905 167.445C110.709 167.32 110.545 167.163 110.414 166.975C110.28 166.787 110.198 166.563 110.169 166.304L109.867 163.694L110.924 163.839L110.986 164.375L111.022 164.38C111.076 164.281 111.159 164.192 111.269 164.114C111.378 164.037 111.52 163.982 111.696 163.95C111.869 163.919 112.078 163.92 112.321 163.953ZM112.114 164.589C111.893 164.559 111.705 164.569 111.552 164.62C111.399 164.672 111.285 164.753 111.212 164.863C111.137 164.973 111.108 165.1 111.125 165.243L111.178 165.703C111.21 165.684 111.266 165.67 111.347 165.661C111.425 165.652 111.515 165.647 111.614 165.645C111.713 165.644 111.812 165.644 111.91 165.646C112.008 165.647 112.093 165.649 112.165 165.651C112.327 165.655 112.47 165.644 112.594 165.62C112.719 165.595 112.815 165.55 112.881 165.484C112.947 165.42 112.974 165.328 112.96 165.21C112.94 165.04 112.851 164.903 112.694 164.796C112.536 164.689 112.342 164.62 112.114 164.589Z" fill="white"/>
<path d="M101.52 165.87L103.211 162.421L104.432 162.689L106.08 166.87L104.902 166.612L103.84 163.541L103.791 163.531L102.695 166.128L101.52 165.87Z" fill="white"/>
<path d="M95.7432 160.387C96.1987 160.525 96.5825 160.723 96.8948 160.983C97.2076 161.242 97.4372 161.542 97.583 161.883C97.7271 162.224 97.7734 162.584 97.7225 162.966C97.6716 163.347 97.5359 163.654 97.3156 163.886C97.0932 164.117 96.8042 164.262 96.4491 164.319C96.0941 164.377 95.6886 164.337 95.2337 164.2C94.7783 164.062 94.3944 163.864 94.0816 163.604C93.7688 163.345 93.5406 163.044 93.3969 162.702C93.251 162.36 93.2038 161.998 93.2547 161.616C93.3057 161.235 93.4422 160.929 93.6647 160.7C93.8851 160.47 94.1728 160.326 94.5278 160.268C94.8829 160.21 95.2878 160.25 95.7432 160.387ZM95.6441 161.083C95.3973 161.008 95.1834 160.999 95.0034 161.057C94.8225 161.115 94.6797 161.224 94.5744 161.382C94.467 161.54 94.3985 161.731 94.3682 161.955C94.338 162.181 94.3525 162.398 94.4108 162.606C94.4669 162.814 94.5712 162.999 94.7226 163.158C94.874 163.317 95.0728 163.433 95.3196 163.508C95.5728 163.585 95.7902 163.593 95.9728 163.535C96.1532 163.476 96.2973 163.367 96.4051 163.208C96.5103 163.05 96.5781 162.858 96.6083 162.632C96.6385 162.408 96.6248 162.192 96.5688 161.985C96.51 161.777 96.405 161.593 96.2536 161.434C96.1002 161.276 95.8968 161.159 95.6441 161.083Z" fill="white"/>
<path d="M86.5398 158.889L85.983 160.935L84.9019 160.517L85.8625 156.986L86.911 157.391L86.7403 158.018L86.7881 158.037C86.9458 157.879 87.1598 157.783 87.4313 157.749C87.7001 157.714 88.0069 157.763 88.3519 157.897C88.6521 158.013 88.9044 158.167 89.1076 158.359C89.3082 158.552 89.4459 158.772 89.5217 159.02C89.597 159.269 89.5962 159.535 89.5198 159.817L88.9075 162.065L87.8265 161.647L88.403 159.527C88.4641 159.304 88.4325 159.095 88.3093 158.902C88.186 158.708 87.9948 158.562 87.7356 158.462C87.5762 158.4 87.414 158.37 87.2484 158.372C87.0829 158.374 86.9362 158.416 86.8084 158.497C86.6781 158.579 86.5885 158.709 86.5398 158.889Z" fill="white"/>
<path d="M82.1103 155.363L80.737 158.72L79.7129 158.243L79.9415 157.683L79.8946 157.662C79.7339 157.817 79.5327 157.902 79.2915 157.914C79.0473 157.927 78.7972 157.874 78.5401 157.754C78.4819 157.727 78.4176 157.695 78.3474 157.657C78.2746 157.619 78.2154 157.586 78.1697 157.556L78.4678 156.828C78.5075 156.861 78.5744 156.904 78.6681 156.958C78.7593 157.013 78.8494 157.061 78.939 157.102C79.1317 157.192 79.3174 157.241 79.4968 157.25C79.6736 157.26 79.8285 157.23 79.9603 157.162C80.0926 157.093 80.1882 156.988 80.2463 156.845L81.0538 154.872L82.1103 155.363Z" fill="white"/>
<path d="M74.1799 151.32C74.6152 151.559 74.9542 151.831 75.1964 152.136C75.4362 152.442 75.5727 152.762 75.606 153.097C75.6383 153.434 75.5616 153.767 75.376 154.097C75.1936 154.421 74.9487 154.66 74.6412 154.811C74.3312 154.964 73.9842 155.024 73.6003 154.992C73.2154 154.962 72.8159 154.833 72.4019 154.606C72.1341 154.459 71.8998 154.289 71.6976 154.096C71.4935 153.903 71.3363 153.691 71.2268 153.461C71.1152 153.229 71.0633 152.984 71.071 152.725C71.0782 152.468 71.1596 152.2 71.3151 151.924L71.443 151.696L75 153.649L74.7183 154.15L72.1416 152.735C72.0635 152.879 72.0345 153.028 72.055 153.185C72.0746 153.342 72.1409 153.494 72.2533 153.64C72.3643 153.785 72.5177 153.912 72.7133 154.019C72.9226 154.134 73.1269 154.198 73.3268 154.211C73.5256 154.225 73.7029 154.197 73.8586 154.126C74.0113 154.056 74.1284 153.951 74.2096 153.811L74.4558 153.374C74.559 153.191 74.6012 153.008 74.5829 152.826C74.5636 152.645 74.4911 152.475 74.3642 152.314C74.2375 152.154 74.0626 152.014 73.8402 151.892C73.6914 151.81 73.5483 151.751 73.4108 151.715C73.2729 151.68 73.1423 151.669 73.0201 151.68C72.8974 151.692 72.7887 151.73 72.6933 151.794L71.7824 151.192C71.9462 151.042 72.1511 150.945 72.3974 150.901C72.6412 150.857 72.9154 150.87 73.2195 150.938C73.5227 151.008 73.843 151.135 74.1799 151.32Z" fill="white"/>
<path d="M67.2723 147.219C67.5967 147.43 67.8426 147.678 68.0091 147.962C68.1761 148.246 68.2491 148.548 68.2274 148.867C68.2058 149.186 68.0738 149.504 67.8299 149.821C67.5837 150.142 67.3008 150.364 66.9809 150.486C66.658 150.608 66.3247 150.642 65.9794 150.586C65.6338 150.531 65.3022 150.4 64.9852 150.193C64.7429 150.035 64.5662 149.876 64.4542 149.717C64.3418 149.558 64.2706 149.409 64.2406 149.269C64.2097 149.131 64.1963 149.01 64.2 148.907L64.1597 148.881L63.0542 150.321L62.0776 149.683L65.0331 145.833L65.9905 146.458L65.6414 146.913L65.7009 146.952C65.8048 146.914 65.9344 146.887 66.0903 146.87C66.2447 146.854 66.4215 146.87 66.6197 146.917C66.8178 146.963 67.0354 147.064 67.2723 147.219ZM66.5721 147.6C66.3656 147.465 66.1602 147.389 65.9551 147.372C65.7497 147.356 65.555 147.394 65.3722 147.485C65.1889 147.576 65.026 147.715 64.8826 147.902C64.7393 148.089 64.652 148.275 64.6215 148.462C64.5895 148.648 64.6164 148.827 64.7028 148.998C64.7878 149.168 64.9349 149.322 65.1448 149.459C65.3615 149.601 65.5731 149.679 65.7791 149.695C65.9845 149.711 66.178 149.674 66.3579 149.582C66.5383 149.491 66.6971 149.356 66.8348 149.177C66.9734 148.996 67.0601 148.811 67.0955 148.622C67.1279 148.432 67.1029 148.249 67.0203 148.073C66.9348 147.897 66.7854 147.739 66.5721 147.6Z" fill="white"/>
<path d="M57.4363 140.179L54.6345 142.637L53.7484 141.908L56.5502 139.45L57.4363 140.179ZM53.7914 142.619C53.9315 142.735 54.0176 142.865 54.0494 143.009C54.0802 143.154 54.0464 143.27 53.9475 143.356C53.8483 143.444 53.713 143.476 53.5423 143.454C53.3707 143.432 53.2145 143.364 53.0744 143.248C52.9324 143.131 52.8469 143.001 52.8181 142.857C52.7863 142.713 52.8201 142.597 52.9199 142.51C53.0183 142.423 53.1535 142.391 53.3252 142.412C53.4939 142.433 53.6493 142.502 53.7914 142.619Z" fill="white"/>
<path d="M51.7818 135.154C52.1324 135.483 52.3651 135.813 52.4802 136.144C52.5939 136.474 52.598 136.787 52.4935 137.084C52.3862 137.379 52.1757 137.638 51.8613 137.86C51.5455 138.082 51.1987 138.214 50.8198 138.255C50.4399 138.298 50.0579 138.25 49.6731 138.111C49.2856 137.971 48.9204 137.741 48.5776 137.419C48.2927 137.152 48.0869 136.883 47.9606 136.612C47.8315 136.34 47.7858 136.084 47.8235 135.842C47.8597 135.602 47.9805 135.394 48.186 135.219L48.9768 135.96C48.8589 136.095 48.8107 136.255 48.831 136.438C48.8486 136.62 48.9573 136.805 49.1567 136.992C49.3258 137.151 49.5147 137.261 49.7239 137.325C49.9311 137.388 50.1456 137.401 50.3674 137.363C50.5867 137.323 50.8012 137.229 51.0103 137.082C51.2223 136.933 51.3693 136.772 51.4514 136.599C51.5326 136.426 51.5512 136.252 51.5067 136.076C51.46 135.899 51.3502 135.73 51.1779 135.568C51.0561 135.454 50.9272 135.366 50.7907 135.305C50.6514 135.243 50.5098 135.209 50.366 135.202C50.2221 135.196 50.0821 135.221 49.9458 135.277L49.1555 134.536C49.3948 134.4 49.6629 134.331 49.9593 134.33C50.2543 134.329 50.559 134.398 50.8726 134.534C51.1847 134.672 51.4877 134.879 51.7818 135.154Z" fill="white"/>
<path d="M46.0749 129.374C46.3935 129.724 46.5971 130.065 46.6853 130.397C46.7707 130.728 46.7428 131.033 46.6025 131.311C46.4603 131.59 46.2089 131.826 45.8484 132.019C45.4941 132.209 45.1213 132.308 44.729 132.315C44.3346 132.321 43.9497 132.241 43.5754 132.074C43.1997 131.908 42.8595 131.658 42.556 131.324C42.3602 131.109 42.21 130.887 42.1046 130.659C41.9968 130.431 41.9469 130.205 41.9552 129.981C41.9622 129.757 42.0368 129.543 42.1796 129.34C42.3204 129.138 42.5419 128.956 42.8442 128.794L43.0931 128.661L45.6989 131.525L45.1512 131.818L43.2637 129.743C43.1097 129.828 43.0026 129.937 42.942 130.068C42.88 130.201 42.8687 130.346 42.9071 130.503C42.9447 130.659 43.0347 130.816 43.1783 130.974C43.3316 131.142 43.5066 131.268 43.7032 131.352C43.8985 131.437 44.0936 131.48 44.2885 131.482C44.4802 131.483 44.654 131.443 44.8098 131.362L45.2875 131.106C45.4879 130.998 45.6257 130.869 45.702 130.717C45.7763 130.567 45.7909 130.405 45.7457 130.23C45.6992 130.057 45.5944 129.88 45.4318 129.702C45.3228 129.582 45.2079 129.482 45.0866 129.403C44.9638 129.324 44.8372 129.267 44.7067 129.231C44.5756 129.195 44.4452 129.185 44.3148 129.2L43.701 128.386C43.9452 128.327 44.2047 128.326 44.4779 128.382C44.749 128.438 45.0214 128.549 45.2957 128.716C45.5681 128.883 45.8276 129.102 46.0749 129.374Z" fill="white"/>
<path d="M38.2465 119.55C38.5044 119.924 38.6402 120.273 38.6536 120.596C38.6662 120.918 38.5711 121.2 38.3689 121.443C38.1635 121.684 37.8629 121.868 37.4671 121.995C37.0699 122.123 36.6687 122.163 36.2639 122.115C35.8577 122.067 35.4773 121.937 35.1236 121.725C34.7674 121.512 34.4627 121.223 34.2107 120.857C34.0009 120.553 33.8737 120.265 33.8295 119.994C33.7827 119.721 33.8171 119.48 33.9328 119.272C34.0466 119.064 34.2381 118.905 34.5066 118.795L35.0885 119.639C34.9233 119.733 34.8223 119.865 34.7853 120.034C34.7457 120.202 34.799 120.393 34.9458 120.605C35.0705 120.786 35.2304 120.928 35.4265 121.032C35.6208 121.136 35.839 121.196 36.0802 121.212C36.3201 121.226 36.5715 121.19 36.8349 121.105C37.1015 121.019 37.3049 120.908 37.4453 120.772C37.5838 120.636 37.6581 120.483 37.6691 120.315C37.6764 120.146 37.6172 119.969 37.4906 119.785C37.4004 119.655 37.295 119.547 37.1732 119.461C37.0488 119.374 36.9132 119.312 36.7669 119.274C36.6201 119.235 36.4672 119.226 36.3083 119.245L35.7264 118.402C36.0177 118.334 36.317 118.333 36.6242 118.399C36.9295 118.465 37.2227 118.595 37.5033 118.789C37.7825 118.983 38.0302 119.237 38.2465 119.55Z" fill="white"/>
<path d="M35.0768 114.786L30.9467 115.702L30.4399 114.823L31.128 114.671L31.1051 114.631C30.8264 114.613 30.5733 114.534 30.3461 114.392C30.1157 114.249 29.9375 114.068 29.8104 113.848C29.7817 113.798 29.752 113.741 29.7217 113.678C29.6884 113.614 29.6644 113.56 29.6496 113.516L30.5452 113.318C30.553 113.36 30.5754 113.423 30.613 113.509C30.6474 113.594 30.6866 113.674 30.7309 113.751C30.8266 113.916 30.9508 114.056 31.1034 114.171C31.254 114.284 31.4181 114.364 31.5957 114.409C31.7738 114.454 31.9501 114.457 32.1259 114.418L34.5541 113.88L35.0768 114.786Z" fill="white"/>
<path d="M31.4581 107.8C31.6416 108.193 31.7109 108.543 31.6648 108.852C31.6156 109.159 31.4615 109.41 31.2019 109.607C30.9399 109.803 30.5833 109.93 30.132 109.989C29.6885 110.047 29.2631 110.022 28.8561 109.913C28.4466 109.802 28.0835 109.621 27.7662 109.369C27.4477 109.117 27.2007 108.804 27.0258 108.43C26.9125 108.189 26.8488 107.956 26.8349 107.731C26.8179 107.504 26.8601 107.297 26.9606 107.109C27.0608 106.92 27.2258 106.759 27.4565 106.628C27.6853 106.498 27.9889 106.407 28.3672 106.358L28.6792 106.317L30.1818 109.523L29.4969 109.613L28.4078 107.29C28.2138 107.318 28.0586 107.378 27.9421 107.473C27.8233 107.568 27.7519 107.688 27.7264 107.833C27.7008 107.978 27.729 108.138 27.8115 108.314C27.8999 108.503 28.0285 108.662 28.1961 108.791C28.3625 108.921 28.5457 109.015 28.7457 109.073C28.9438 109.13 29.139 109.147 29.333 109.124L29.9309 109.045C30.1821 109.013 30.3779 108.943 30.519 108.836C30.6577 108.73 30.7401 108.596 30.7651 108.434C30.7888 108.272 30.7538 108.091 30.66 107.891C30.5968 107.757 30.5196 107.638 30.4274 107.535C30.3334 107.432 30.2263 107.346 30.1066 107.277C29.9869 107.208 29.8567 107.161 29.7159 107.136L29.4187 106.261C29.6955 106.283 29.9627 106.358 30.2219 106.486C30.478 106.613 30.7131 106.788 30.9267 107.01C31.1385 107.233 31.3156 107.497 31.4581 107.8Z" fill="white"/>
<path d="M28.9351 101.738C29.0231 101.988 29.0516 102.215 29.0213 102.419C28.988 102.622 28.8919 102.785 28.7329 102.909C28.5732 103.031 28.3467 103.098 28.0533 103.109C27.8007 103.118 27.5771 103.085 27.3828 103.008C27.1891 102.932 27.0174 102.825 26.8682 102.687C26.719 102.548 26.5877 102.39 26.4747 102.214C26.3587 102.036 26.2551 101.852 26.1645 101.661C26.0556 101.43 25.9655 101.243 25.8932 101.1C25.8196 100.957 25.7479 100.854 25.6781 100.791C25.6063 100.726 25.5194 100.695 25.4182 100.699L25.401 100.699C25.1816 100.708 25.0314 100.771 24.9516 100.89C24.8712 101.01 24.8691 101.177 24.9454 101.393C25.0252 101.621 25.1457 101.8 25.3051 101.929C25.4644 102.057 25.6289 102.141 25.7984 102.182L25.9643 103.056C25.6683 102.997 25.401 102.893 25.163 102.742C24.9227 102.591 24.717 102.403 24.5455 102.179C24.3722 101.955 24.2369 101.704 24.1395 101.428C24.0727 101.238 24.0316 101.048 24.0157 100.858C23.9999 100.667 24.0229 100.492 24.0843 100.331C24.1444 100.171 24.2563 100.04 24.4217 99.9388C24.5863 99.8356 24.8171 99.7784 25.1141 99.7672L28.1109 99.6561L28.4258 100.551L27.8107 100.573L27.8216 100.604C27.9656 100.656 28.1104 100.732 28.2553 100.83C28.3978 100.927 28.5294 101.052 28.6496 101.204C28.7673 101.354 28.8623 101.532 28.9351 101.738ZM28.0746 101.525C28.0085 101.338 27.9102 101.177 27.7784 101.043C27.6443 100.909 27.4948 100.808 27.3287 100.74C27.1625 100.67 26.9964 100.637 26.8314 100.644L26.3038 100.663C26.3412 100.691 26.3838 100.74 26.432 100.809C26.4795 100.877 26.5269 100.954 26.5746 101.039C26.6224 101.124 26.6674 101.208 26.7109 101.291C26.7539 101.375 26.7913 101.447 26.8226 101.508C26.8929 101.647 26.9717 101.77 27.0585 101.877C27.1458 101.985 27.2442 102.069 27.3542 102.129C27.4618 102.19 27.5837 102.217 27.7197 102.212C27.9143 102.205 28.0388 102.137 28.0939 102.008C28.149 101.879 28.1427 101.718 28.0746 101.525Z" fill="white"/>
<path d="M27.0212 96.1742L22.4116 95.8752L22.2192 94.9876L23.0025 95.0384L22.9925 94.9922C22.7108 94.893 22.4752 94.7437 22.2859 94.5442C22.0949 94.3447 21.9705 94.1131 21.9133 93.8497C21.8559 93.5829 21.8831 93.3632 21.9956 93.19C22.1058 93.0149 22.2825 92.8983 22.526 92.8399L22.5174 92.7989C22.2424 92.6948 22.0065 92.5346 21.8093 92.318C21.6104 92.0993 21.4797 91.8473 21.4179 91.5616C21.3393 91.1989 21.409 90.9118 21.6275 90.7C21.8461 90.4882 22.2126 90.399 22.7265 90.4322L25.8208 90.6332L26.0226 91.5643L23.0966 91.3742C22.81 91.3558 22.6154 91.4075 22.5116 91.5286C22.4054 91.65 22.3731 91.8049 22.4137 91.9928C22.4625 92.2168 22.5823 92.3977 22.7735 92.5347C22.9628 92.6702 23.1875 92.7461 23.4476 92.7631L26.3226 92.9494L26.5198 93.8603L23.5489 93.6677C23.3107 93.6518 23.1342 93.7014 23.0186 93.815C22.9028 93.9273 22.8665 94.0819 22.9087 94.2785C22.9376 94.4119 23.0044 94.5361 23.1079 94.6506C23.2097 94.7652 23.3395 94.8595 23.4975 94.9338C23.6537 95.0081 23.8271 95.0514 24.0171 95.0638L26.8198 95.2454L27.0212 96.1742Z" fill="white"/>
<path d="M24.4438 86.0475L24.7812 86.1302C25.0394 86.1917 25.303 86.2728 25.5724 86.3723C25.8443 86.4711 26.0946 86.5698 26.3243 86.6688C26.554 86.7679 26.7345 86.8473 26.8663 86.9069L26.9273 87.5246C26.8014 87.4826 26.6297 87.4254 26.4126 87.3534C26.1959 87.2798 25.9525 87.2035 25.6829 87.125C25.4132 87.0468 25.1411 86.9807 24.8662 86.9265L24.5234 86.8578L24.4438 86.0475Z" fill="white"/>
<path d="M25.1184 78.9759L20.4354 77.7908L20.4861 76.9022L25.1691 78.0874L25.1184 78.9759ZM19.7962 77.1758C19.7884 77.3167 19.7235 77.4232 19.6019 77.495C19.478 77.5668 19.3339 77.5817 19.1693 77.54C19.0026 77.4978 18.8645 77.4115 18.7541 77.2806C18.642 77.1494 18.5898 77.0133 18.598 76.8726C18.6062 76.7301 18.6717 76.6239 18.7956 76.5543C18.9173 76.4821 19.0614 76.4672 19.2282 76.5093C19.3927 76.551 19.5308 76.6374 19.6429 76.7685C19.7532 76.8977 19.8043 77.0337 19.7962 77.1758Z" fill="white"/>
<path d="M22.5144 70.7564L22.496 71.578C22.3919 71.568 22.2905 71.5765 22.193 71.6041C22.0954 71.6298 22.0117 71.68 21.9425 71.7547C21.8728 71.8292 21.8277 71.9337 21.8059 72.0668C21.7768 72.2467 21.802 72.4133 21.8812 72.5672C21.9607 72.72 22.0793 72.8206 22.2367 72.8688C22.3717 72.9136 22.488 72.91 22.5858 72.8575C22.6834 72.8035 22.7749 72.6923 22.8592 72.5236L23.1296 71.9534C23.2808 71.6373 23.4724 71.4278 23.7059 71.3252C23.9388 71.2205 24.2225 71.2208 24.5558 71.3256C24.8481 71.4208 25.0957 71.5709 25.298 71.7761C25.4986 71.9789 25.6425 72.2178 25.7297 72.4928C25.8168 72.7679 25.8357 73.0584 25.7865 73.3636C25.7143 73.8117 25.5371 74.1345 25.2543 74.3319C24.9701 74.5283 24.6097 74.5845 24.1732 74.5005L24.2064 73.6261C24.4227 73.6547 24.5942 73.6243 24.721 73.5344C24.8477 73.4449 24.9279 73.3005 24.9595 73.1018C24.9928 72.8971 24.9656 72.7154 24.879 72.5571C24.7922 72.3974 24.6701 72.2923 24.5127 72.2423C24.3794 72.1996 24.2632 72.2049 24.1628 72.2583C24.0634 72.3102 23.9768 72.4126 23.9034 72.5663L23.6355 73.1379C23.4862 73.4593 23.2876 73.6691 23.0406 73.7677C22.7911 73.8649 22.4974 73.8589 22.1585 73.7491C21.8717 73.6592 21.6331 73.5185 21.443 73.3276C21.2513 73.1343 21.1161 72.9078 21.0371 72.649C20.9561 72.3871 20.9396 72.1105 20.9868 71.818C21.0558 71.3889 21.2265 71.0881 21.4984 70.916C21.7703 70.742 22.1093 70.689 22.5144 70.7564Z" fill="white"/>
<path d="M28.1219 64.5001C28.0383 64.7144 27.9121 64.8844 27.7438 65.0103C27.5739 65.1333 27.3692 65.1994 27.1293 65.2076C26.8897 65.2145 26.6227 65.1513 26.3276 65.0173C26.074 64.9021 25.8775 64.7714 25.7392 64.6258C25.6004 64.4795 25.505 64.3231 25.4531 64.1562C25.4006 63.9891 25.3791 63.8178 25.3877 63.6418C25.3951 63.464 25.4191 63.2874 25.4596 63.1124C25.5093 62.9017 25.5477 62.7299 25.5742 62.5969C25.5987 62.4627 25.5985 62.3572 25.5729 62.2802C25.5464 62.2006 25.4827 62.138 25.381 62.0917L25.3634 62.0838C25.1428 61.9835 24.9528 61.955 24.7932 61.9987C24.6338 62.042 24.5185 62.1562 24.4465 62.3411C24.3703 62.5363 24.3667 62.717 24.4354 62.883C24.5045 63.0472 24.6085 63.1842 24.7473 63.2941L24.3172 63.9747C24.0669 63.7917 23.8756 63.5909 23.745 63.3725C23.6118 63.1531 23.5374 62.9248 23.5216 62.688C23.5042 62.4506 23.5413 62.2132 23.6331 61.9766C23.6968 61.814 23.7853 61.6631 23.8988 61.5248C24.0122 61.3865 24.1536 61.2768 24.3232 61.1967C24.4903 61.1152 24.6891 61.0795 24.9197 61.0892C25.1507 61.0976 25.4158 61.1695 25.7149 61.3055L28.7259 62.6731L28.4276 63.4394L27.8097 63.1586L27.7991 63.1849C27.9053 63.2903 27.9963 63.4118 28.0713 63.5497C28.1448 63.6848 28.1891 63.8339 28.2039 63.9958C28.2175 64.156 28.1901 64.3241 28.1219 64.5001ZM27.423 63.9394C27.4854 63.7794 27.4975 63.6215 27.4592 63.4658C27.4188 63.3094 27.3408 63.1676 27.2246 63.0406C27.1093 62.9122 26.9687 62.8105 26.8024 62.7349L26.2724 62.4939C26.2901 62.5315 26.2988 62.5856 26.2987 62.6564C26.2995 62.7258 26.2939 62.8012 26.2831 62.8826C26.2722 62.9639 26.2595 63.0436 26.2449 63.1217C26.2309 63.2 26.2182 63.2676 26.2074 63.3248C26.1827 63.4535 26.1762 63.5761 26.1886 63.6922C26.2009 63.8084 26.2405 63.9134 26.3073 64.0077C26.3719 64.1011 26.4726 64.1789 26.609 64.2408C26.8044 64.3293 26.973 64.343 27.1145 64.2809C27.2554 64.219 27.3582 64.1052 27.423 63.9394Z" fill="white"/>
<path d="M28.6559 52.4923L29.4304 52.9539L28.2597 54.7481L27.4851 54.2865L28.6559 52.4923ZM32.0271 56.3687L27.3766 53.5993C27.0904 53.4289 26.8801 53.2452 26.7452 53.0476C26.6113 52.8489 26.5442 52.6496 26.5438 52.4503C26.543 52.2503 26.5999 52.0631 26.7147 51.8881C26.7953 51.7641 26.8812 51.6623 26.9712 51.5824C27.0617 51.5027 27.1331 51.4464 27.1853 51.4138L27.867 52.0174C27.8342 52.0397 27.7965 52.0705 27.7538 52.1087C27.7085 52.1458 27.6678 52.1929 27.6308 52.2495C27.544 52.3827 27.5279 52.5041 27.5822 52.6132C27.6354 52.7195 27.7452 52.8225 27.9111 52.9217L32.4949 55.6511L32.0271 56.3687Z" fill="white"/>
<path d="M34.7293 52.518L30.6538 49.7508L31.1834 49.1062L31.8627 49.5676L31.8865 49.538C31.6937 49.3267 31.5849 49.1157 31.5601 48.904C31.5346 48.6902 31.5882 48.5025 31.7207 48.3409C31.7507 48.3043 31.7873 48.2651 31.8299 48.2233C31.8714 48.1793 31.9095 48.1451 31.9435 48.1205L32.8271 48.7201C32.7895 48.7388 32.7409 48.775 32.6795 48.8291C32.6182 48.8805 32.5638 48.9347 32.5176 48.9908C32.4184 49.1123 32.3669 49.247 32.3634 49.3954C32.3595 49.5414 32.4008 49.6866 32.4882 49.8322C32.5758 49.9773 32.706 50.1085 32.8794 50.2264L35.2754 51.853L34.7293 52.518Z" fill="white"/>
<path d="M39.2325 47.7106C38.9712 47.9605 38.6619 48.1124 38.3045 48.1662C37.9478 48.2198 37.5677 48.1811 37.1644 48.0494C36.7626 47.9164 36.3628 47.6945 35.9655 47.3835C35.5677 47.0723 35.272 46.7501 35.0775 46.4161C34.8844 46.0809 34.801 45.7571 34.8271 45.4446C34.8533 45.132 34.9973 44.8507 35.2586 44.6008C35.5204 44.3511 35.8292 44.199 36.1865 44.1452C36.5432 44.0916 36.924 44.1318 37.3274 44.2654C37.732 44.3986 38.133 44.6205 38.5308 44.9318C38.9286 45.243 39.2232 45.5652 39.4148 45.8993C39.6075 46.2316 39.6906 46.5545 39.6644 46.867C39.6377 47.1793 39.4942 47.4608 39.2325 47.7106ZM38.5094 47.1385C38.6511 47.0034 38.7139 46.8463 38.6971 46.6673C38.6787 46.4873 38.5974 46.3007 38.4536 46.1076C38.3108 45.9131 38.1225 45.7242 37.8887 45.541C37.6534 45.3568 37.4163 45.2127 37.1784 45.1095C36.9397 45.0033 36.7161 44.9515 36.5072 44.9536C36.2983 44.9557 36.1232 45.0246 35.9813 45.1602C35.8361 45.2988 35.7719 45.459 35.7893 45.6399C35.8077 45.8199 35.8886 46.0078 36.0334 46.2035C36.1771 46.397 36.3671 46.5861 36.6024 46.7703C36.8363 46.9531 37.0717 47.097 37.3086 47.2016C37.5469 47.3054 37.7702 47.3561 37.9792 47.3536C38.1876 47.3491 38.3641 47.2776 38.5094 47.1385Z" fill="white"/>
<path d="M42.6586 44.5751L42.1241 44.0888L41.3838 40.8286L41.3533 40.8008L39.8379 41.9247L39.1407 41.2902L41.5327 39.5172L42.1065 40.0393L42.8828 43.208L42.9133 43.2358L44.4563 42.0915L45.1537 42.7256L42.6586 44.5751Z" fill="white"/>
<path d="M49.1996 40.3082C48.8614 40.5011 48.5014 40.596 48.1203 40.5928C47.7387 40.5872 47.3566 40.489 46.9749 40.2994C46.5914 40.1078 46.2295 39.832 45.889 39.4708C45.5542 39.1161 45.326 38.7669 45.2044 38.4234C45.0834 38.0779 45.0714 37.7619 45.1689 37.4759C45.2649 37.1885 45.4735 36.9526 45.7956 36.769C46.0034 36.6503 46.232 36.5726 46.4819 36.5362C46.7312 36.4977 46.9942 36.5086 47.27 36.5699C47.5479 36.6302 47.8315 36.7471 48.1215 36.9203C48.4095 37.0924 48.6967 37.3295 48.9823 37.632L49.2173 37.8816L46.4532 39.4599L45.9356 38.9117L47.9381 37.7682C47.7895 37.6135 47.6261 37.4938 47.4472 37.4091C47.2669 37.3231 47.0859 37.2779 46.904 37.2737C46.7231 37.2681 46.5567 37.3091 46.4043 37.3961C46.2421 37.4889 46.1375 37.611 46.0906 37.7619C46.0429 37.9116 46.0461 38.0712 46.1002 38.2407C46.1544 38.408 46.2531 38.5689 46.3974 38.7241L46.8488 39.2028C47.0384 39.4034 47.2369 39.5551 47.4444 39.6583C47.6501 39.7594 47.8537 39.8117 48.0547 39.8145C48.2538 39.8157 48.4401 39.7669 48.6127 39.6684C48.7285 39.6023 48.8175 39.526 48.8801 39.4397C48.9413 39.3519 48.9754 39.2551 48.982 39.1501C48.9882 39.0445 48.9632 38.9336 48.9068 38.8161L49.7292 38.4777C49.8718 38.7049 49.948 38.9312 49.9578 39.1563C49.9672 39.3789 49.9093 39.5895 49.7835 39.7884C49.6564 39.9854 49.4615 40.1586 49.1996 40.3082Z" fill="white"/>
<path d="M52.6711 35.4665L54.37 37.5917L53.5018 37.9611L50.602 34.3337L51.4321 33.9809L51.9247 34.5971L51.9681 34.5786C51.8904 34.3395 51.8962 34.1207 51.9864 33.922C52.0778 33.7229 52.2608 33.5647 52.5359 33.4477C52.7899 33.3393 53.0544 33.2988 53.3286 33.3254C53.6043 33.3512 53.8751 33.4437 54.1417 33.6027C54.4093 33.7607 54.6586 33.9851 54.8881 34.2755L56.7346 36.585L55.8668 36.9547L54.1258 34.7773C53.932 34.5347 53.7167 34.3723 53.4792 34.2899C53.2432 34.2064 53.0137 34.2128 52.7894 34.3079C52.6377 34.3727 52.5289 34.4631 52.4639 34.5798C52.3985 34.6937 52.3814 34.8264 52.4127 34.9779C52.4453 35.1291 52.5313 35.2915 52.6711 35.4665Z" fill="white"/>
<path d="M65.4777 33.9476C65.1547 34.0222 64.8202 34.0116 64.4742 33.916C64.1283 33.8201 63.7947 33.6421 63.4733 33.3819C63.152 33.1213 62.867 32.7805 62.6194 32.3595C62.3686 31.9332 62.2323 31.556 62.2096 31.2285C62.1881 30.8988 62.2614 30.6293 62.4307 30.4199C62.5981 30.2089 62.8402 30.067 63.1558 29.9939C63.3967 29.9381 63.6171 29.9307 63.817 29.9713C64.0163 30.0102 64.193 30.0724 64.3464 30.1582C64.4993 30.2419 64.6279 30.3244 64.7328 30.4061L64.7729 30.3969L63.648 28.484L64.6191 28.2595L67.6267 33.3732L66.6743 33.5939L66.3187 32.9895L66.2597 33.0033C66.2648 33.108 66.251 33.2237 66.2181 33.3505C66.184 33.4755 66.1112 33.5928 65.9992 33.7021C65.8872 33.8113 65.7131 33.8928 65.4777 33.9476ZM65.312 33.1434C65.5172 33.0958 65.6616 33.0039 65.7453 32.8672C65.8278 32.7287 65.852 32.5576 65.8171 32.354C65.7824 32.15 65.6921 31.9239 65.5461 31.6761C65.4003 31.4279 65.2364 31.2214 65.0537 31.0554C64.8728 30.8892 64.68 30.7717 64.4763 30.7041C64.2734 30.6355 64.0681 30.6251 63.8592 30.6734C63.6434 30.7234 63.4943 30.8175 63.4112 30.9558C63.3287 31.0943 63.3049 31.2642 63.3404 31.4658C63.3762 31.668 63.4637 31.8876 63.6037 32.1259C63.745 32.3656 63.9074 32.571 64.0909 32.7423C64.2757 32.9113 64.4718 33.0333 64.6799 33.108C64.8888 33.1804 65.0994 33.1924 65.312 33.1434Z" fill="white"/>
<path d="M73.4099 32.5134C72.9767 32.5684 72.5643 32.5339 72.1737 32.4108C71.7837 32.2857 71.4348 32.0836 71.1267 31.804C70.8177 31.5232 70.5679 31.178 70.3778 30.7687C70.1915 30.3662 70.1116 30.0021 70.1398 29.6765C70.1685 29.3492 70.2964 29.0812 70.5233 28.8728C70.7497 28.6623 71.0693 28.5312 71.4817 28.4791C71.7484 28.4453 72.0178 28.4524 72.2904 28.5008C72.5641 28.5474 72.8292 28.6394 73.086 28.7779C73.3448 28.9158 73.5844 29.1032 73.8057 29.3397C74.0257 29.5743 74.2152 29.8632 74.3744 30.2064L74.5055 30.4891L70.9628 30.9373L70.6743 30.3156L73.2408 29.9909C73.1571 29.8145 73.0416 29.6627 72.8956 29.5355C72.7482 29.4069 72.5823 29.3117 72.397 29.251C72.2136 29.1897 72.0241 29.1712 71.8291 29.1959C71.6209 29.222 71.4592 29.2909 71.3441 29.4026C71.2284 29.5126 71.1605 29.6471 71.1411 29.8062C71.1228 29.9631 71.1528 30.1293 71.2322 30.3044L71.484 30.8473C71.5896 31.075 71.7263 31.2644 71.8939 31.4159C72.0603 31.5655 72.2466 31.6733 72.452 31.7393C72.6563 31.8031 72.8693 31.821 73.0904 31.7929C73.2386 31.7742 73.3643 31.7385 73.4668 31.686C73.5691 31.6321 73.6469 31.5617 73.7001 31.4757C73.7538 31.3898 73.7774 31.2889 73.7708 31.1728L74.767 31.1494C74.8125 31.3846 74.7907 31.5979 74.7005 31.789C74.6114 31.9782 74.4582 32.1362 74.2406 32.2626C74.0229 32.3872 73.7457 32.4712 73.4099 32.5134Z" fill="white"/>
<path d="M81.4003 28.8801L80.4704 29.0074C80.4131 28.9228 80.3373 28.8437 80.2427 28.7711C80.1504 28.698 80.0397 28.6405 79.9105 28.5981C79.7817 28.5562 79.6355 28.538 79.4723 28.5439C79.2523 28.5519 79.0825 28.6005 78.9622 28.6899C78.8443 28.7794 78.8095 28.8907 78.8583 29.0244C78.8967 29.1393 78.9771 29.2309 79.0993 29.2993C79.2239 29.3677 79.4078 29.4212 79.6519 29.459L80.4657 29.5752C80.9183 29.6405 81.2776 29.7565 81.5452 29.924C81.8142 30.0912 81.9996 30.3161 82.1009 30.5986C82.1864 30.8474 82.1806 31.0699 82.0842 31.2661C81.989 31.4601 81.8162 31.6156 81.5656 31.7325C81.3152 31.849 81.0036 31.9144 80.6305 31.9278C80.0823 31.9479 79.6052 31.8625 79.2001 31.6726C78.7938 31.4809 78.4953 31.2047 78.3039 30.8437L79.3021 30.7188C79.4116 30.8952 79.5578 31.026 79.7411 31.1115C79.9251 31.1968 80.1381 31.2349 80.3811 31.2262C80.6318 31.217 80.8169 31.1641 80.9368 31.0679C81.0585 30.9714 81.0961 30.8567 81.0491 30.7228C81.0095 30.6097 80.9268 30.5181 80.8021 30.4482C80.6786 30.378 80.5075 30.327 80.2875 30.295L79.474 30.1813C79.0168 30.1182 78.6525 29.997 78.3807 29.8176C78.1082 29.6365 77.9227 29.4021 77.8235 29.1141C77.7364 28.8709 77.7373 28.6573 77.8266 28.4735C77.9169 28.2879 78.0808 28.1414 78.3187 28.0338C78.5582 27.9246 78.8563 27.8633 79.214 27.8504C79.739 27.8315 80.1863 27.9148 80.5568 28.1008C80.9296 28.2873 81.2103 28.5465 81.4003 28.8801Z" fill="white"/>
<path d="M88.9533 29.0653L87.9899 29.113C87.9414 29.0264 87.8726 28.9434 87.7849 28.865C87.699 28.7864 87.5926 28.7217 87.4656 28.6698C87.339 28.6185 87.192 28.5888 87.0245 28.5813C86.7994 28.5707 86.6205 28.6045 86.4876 28.6812C86.3563 28.7581 86.308 28.8636 86.3428 28.9972C86.3684 29.1119 86.44 29.2077 86.557 29.2838C86.6763 29.3604 86.858 29.4274 87.1018 29.484L87.92 29.6638C88.3735 29.7639 88.7274 29.9066 88.9808 30.0908C89.236 30.2749 89.3996 30.5086 89.4698 30.7913C89.5279 31.0396 89.4967 31.255 89.3757 31.4374C89.2562 31.6186 89.0619 31.7553 88.7927 31.8477C88.5239 31.9408 88.1982 31.9785 87.8155 31.9608C87.2537 31.9351 86.7772 31.8136 86.3855 31.5959C85.9938 31.3763 85.7204 31.0837 85.5668 30.7176L86.6003 30.6785C86.6911 30.8586 86.8255 30.9977 87.0029 31.0957C87.1803 31.1936 87.3932 31.2478 87.6425 31.2596C87.8995 31.2712 88.0944 31.2348 88.2275 31.1515C88.3631 31.0677 88.4147 30.9591 88.3822 30.8255C88.3548 30.7128 88.281 30.617 88.1616 30.5386C88.044 30.4604 87.8753 30.3969 87.6544 30.348L86.8372 30.1708C86.3781 30.072 86.0204 29.9243 85.7635 29.7279C85.5071 29.5299 85.3444 29.2871 85.2767 28.9996C85.2155 28.7559 85.2408 28.5489 85.3533 28.3779C85.4668 28.2051 85.6511 28.0766 85.9064 27.9916C86.1633 27.905 86.4748 27.8701 86.8414 27.8868C87.379 27.9114 87.8261 28.0292 88.1829 28.2403C88.5414 28.4515 88.7982 28.7264 88.9533 29.0653Z" fill="white"/>
<path d="M95.4114 32.6162C94.9437 32.5566 94.5297 32.4237 94.169 32.2179C93.81 32.0104 93.5199 31.7452 93.2989 31.4218C93.0778 31.0965 92.9407 30.7298 92.8873 30.321C92.8354 29.9191 92.881 29.578 93.0236 29.2979C93.1678 29.0158 93.3942 28.8112 93.7018 28.6833C94.0092 28.554 94.386 28.5178 94.8305 28.5744C95.1181 28.6113 95.394 28.6843 95.6589 28.7951C95.9256 28.9039 96.1681 29.0515 96.3848 29.2373C96.6042 29.4237 96.7861 29.6486 96.9321 29.9126C97.0775 30.1745 97.1724 30.4769 97.2166 30.8192L97.253 31.1015L93.4332 30.6159L93.3527 29.9949L96.1198 30.3469C96.0951 30.1707 96.0291 30.0076 95.9221 29.8592C95.8156 29.7087 95.6766 29.5834 95.5068 29.4836C95.3387 29.3839 95.1494 29.3207 94.939 29.294C94.7145 29.2652 94.523 29.2859 94.3651 29.3558C94.2066 29.4242 94.0897 29.5261 94.0134 29.6613C93.9393 29.795 93.913 29.9496 93.9334 30.1242L94.0037 30.6657C94.0328 30.893 94.1081 31.0943 94.2278 31.2698C94.3481 31.4432 94.5027 31.585 94.6921 31.694C94.8808 31.8014 95.0947 31.8704 95.3333 31.9007C95.4936 31.921 95.6352 31.9208 95.76 31.9001C95.8848 31.8775 95.9896 31.8349 96.0746 31.7723C96.1601 31.7098 96.22 31.6265 96.2544 31.5227L97.2923 31.7495C97.257 31.9687 97.1593 32.1514 96.9996 32.2978C96.8409 32.4427 96.6277 32.544 96.3582 32.6014C96.0892 32.6572 95.7736 32.6621 95.4114 32.6162Z" fill="white"/>
<path d="M101.284 33.4583L101.203 29.6209L102.274 29.8369L102.288 30.4765L102.336 30.486C102.417 30.2817 102.56 30.1408 102.765 30.0628C102.972 29.9836 103.21 29.971 103.478 30.025C103.539 30.037 103.607 30.0535 103.683 30.0736C103.76 30.0928 103.825 30.1112 103.875 30.13L103.893 30.9619C103.846 30.9391 103.772 30.9123 103.669 30.8819C103.569 30.8502 103.473 30.8247 103.379 30.8059C103.178 30.7654 102.997 30.7648 102.839 30.8039C102.681 30.8417 102.558 30.9138 102.469 31.0205C102.381 31.1271 102.338 31.2617 102.341 31.4249L102.389 33.6807L101.284 33.4583Z" fill="white"/>
<path d="M110.289 31.7418L110.235 32.4254L107.545 31.7059L107.599 31.0223L110.289 31.7418ZM108.335 30.3022L109.438 30.597L109.159 34.116C109.149 34.2351 109.164 34.3321 109.204 34.4074C109.246 34.4816 109.303 34.5403 109.377 34.583C109.45 34.6261 109.532 34.6597 109.624 34.6841C109.693 34.7025 109.756 34.715 109.813 34.7223C109.873 34.7299 109.918 34.7347 109.949 34.7363L110.08 35.4765C110.02 35.4772 109.935 35.4724 109.823 35.4627C109.714 35.4534 109.581 35.4295 109.425 35.3911C109.148 35.3235 108.902 35.2239 108.686 35.0913C108.471 34.9572 108.304 34.7947 108.186 34.6037C108.071 34.4134 108.023 34.2011 108.044 33.9676L108.335 30.3022Z" fill="white"/>
</g>
<defs>
<clipPath id="clip0_56_329">
<rect width="182.805" height="135.219" fill="white" transform="matrix(-0.929148 -0.369708 0.279891 -0.960032 169.853 197.398)"/>
</clipPath>
</defs>
</svg>
