<svg width="241" height="240" viewBox="0 0 241 240" fill="none" xmlns="http://www.w3.org/2000/svg">
<path d="M108.45 6.90367C113.565 -2.24002 126.724 -2.24002 131.838 6.90367L137.699 17.3803C141.382 23.9629 149.77 26.2105 156.25 22.3509L166.564 16.2084C175.567 10.8474 186.962 17.4266 186.82 27.9029L186.657 39.9063C186.555 47.4484 192.695 53.5885 200.237 53.4867L212.241 53.3239C222.717 53.1818 229.297 64.5772 223.935 73.5793L217.793 83.8933C213.933 90.3735 216.181 98.7619 222.763 102.444L233.24 108.305C242.384 113.42 242.384 126.579 233.24 131.694L222.763 137.555C216.181 141.237 213.933 149.626 217.793 156.106L223.935 166.42C229.297 175.422 222.717 186.817 212.241 186.675L200.237 186.513C192.695 186.411 186.555 192.551 186.657 200.093L186.82 212.096C186.962 222.573 175.567 229.152 166.564 223.791L156.25 217.648C149.77 213.789 141.382 216.036 137.699 222.619L131.838 233.096C126.724 242.239 113.565 242.239 108.45 233.096L102.589 222.619C98.9065 216.036 90.5181 213.789 84.0378 217.648L73.7239 223.791C64.7217 229.152 53.3264 222.573 53.4684 212.096L53.6312 200.093C53.7331 192.551 47.5929 186.411 40.0509 186.513L28.0473 186.675C17.5711 186.817 10.992 175.422 16.353 166.42L22.4955 156.106C26.355 149.626 24.1075 141.237 17.5248 137.555L7.0482 131.694C-2.09549 126.579 -2.09549 113.42 7.0482 108.305L17.5248 102.444C24.1075 98.7619 26.355 90.3735 22.4954 83.8933L16.353 73.5793C10.992 64.5772 17.5711 53.1818 28.0474 53.3239L40.0509 53.4867C47.5929 53.5885 53.7331 47.4484 53.6312 39.9063L53.4684 27.9028C53.3264 17.4266 64.7217 10.8474 73.7239 16.2084L84.0378 22.351C90.5181 26.2105 98.9065 23.9629 102.589 17.3803L108.45 6.90367Z" fill="white"/>
</svg>
